<svg width="809" height="677" viewBox="0 0 809 677" fill="none" xmlns="http://www.w3.org/2000/svg">
<path d="M794.675 223.223C845.435 361.098 734.984 545.095 550.17 596.72C365.355 648.345 138.632 529.779 121.848 470.928C105.064 412.077 143.5 189 360.5 88.4999C577.5 -12 743.916 85.3481 794.675 223.223Z" fill="#8E5CF2"/>
<path d="M152.6 167.8H0.299988V269.8H152.6V167.8Z" fill="white"/>
<path d="M152.6 269.7C152.6 269.7 152.6 269.1 152.6 267.8C152.6 266.6 152.6 264.8 152.6 262.4C152.6 257.7 152.6 250.8 152.5 241.9C152.5 224.2 152.4 198.7 152.4 167.7L152.6 167.9C110.6 167.9 57.7 167.9 0.3 168L0.6 167.7C0.6 204 0.6 238.6 0.6 269.7L0.4 269.5C45.2 269.6 83.3 269.6 110.1 269.6C123.5 269.6 134.2 269.7 141.4 269.7C145 269.7 147.8 269.7 149.7 269.7C150.6 269.7 151.4 269.7 151.9 269.7C152.3 269.7 152.6 269.7 152.6 269.7C152.6 269.7 152.4 269.7 151.9 269.7C151.4 269.7 150.7 269.7 149.8 269.7C147.9 269.7 145.1 269.7 141.5 269.7C134.2 269.7 123.6 269.7 110.2 269.8C83.3 269.8 45.2 269.9 0.3 269.9L0 270V269.7C0 238.6 0 204.1 0 167.7V167.4H0.3C57.7 167.4 110.6 167.4 152.6 167.5H152.8V167.7C152.8 198.8 152.7 224.3 152.7 242.1C152.7 250.9 152.7 257.9 152.6 262.6C152.6 264.9 152.6 266.7 152.6 267.9C152.6 269.1 152.6 269.7 152.6 269.7Z" fill="#E0E0E0"/>
<path d="M0.299988 176.9C0.299988 176.7 34.4 176.6 76.4 176.6C118.4 176.6 152.5 176.7 152.5 176.9C152.5 177.1 118.4 177.2 76.4 177.2C34.3 177.1 0.299988 177 0.299988 176.9Z" fill="#E0E0E0"/>
<g opacity="0.3">
<g opacity="0.3">
<path opacity="0.3" d="M5.09999 173.5C5.76274 173.5 6.29999 172.963 6.29999 172.3C6.29999 171.637 5.76274 171.1 5.09999 171.1C4.43725 171.1 3.89999 171.637 3.89999 172.3C3.89999 172.963 4.43725 173.5 5.09999 173.5Z" fill="#E0E0E0"/>
</g>
</g>
<g opacity="0.3">
<g opacity="0.3">
<path opacity="0.3" d="M9.2 173.5C9.86274 173.5 10.4 172.963 10.4 172.3C10.4 171.637 9.86274 171.1 9.2 171.1C8.53726 171.1 8 171.637 8 172.3C8 172.963 8.53726 173.5 9.2 173.5Z" fill="#E0E0E0"/>
</g>
</g>
<g opacity="0.3">
<g opacity="0.3">
<path opacity="0.3" d="M13.4 173.5C14.0627 173.5 14.6 172.963 14.6 172.3C14.6 171.637 14.0627 171.1 13.4 171.1C12.7372 171.1 12.2 171.637 12.2 172.3C12.2 172.963 12.7372 173.5 13.4 173.5Z" fill="#E0E0E0"/>
</g>
</g>
<path d="M54 187.5H13.4V228.1H54V187.5Z" fill="#E0E0E0"/>
<path d="M131.7 199C131.7 199.2 115.9 199.3 96.3 199.3C76.8 199.3 60.9 199.2 60.9 199C60.9 198.8 76.7 198.7 96.3 198.7C115.8 198.7 131.7 198.8 131.7 199Z" fill="#E0E0E0"/>
<path d="M131.7 206.5C131.7 206.7 115.9 206.8 96.3 206.8C76.8 206.8 60.9 206.7 60.9 206.5C60.9 206.3 76.7 206.2 96.3 206.2C115.8 206.3 131.7 206.4 131.7 206.5Z" fill="#E0E0E0"/>
<path d="M131.7 214.1C131.7 214.3 115.9 214.4 96.3 214.4C76.8 214.4 60.9 214.3 60.9 214.1C60.9 213.9 76.7 213.8 96.3 213.8C115.8 213.8 131.7 213.9 131.7 214.1Z" fill="#E0E0E0"/>
<path d="M102.7 221.6C102.7 221.6 102.1 221.7 101.1 221.7C99.9 221.7 98.4 221.8 96.6 221.8C92.8 221.8 87.6 221.9 81.8 221.9C76 221.9 70.8 221.9 67 221.8C65.2 221.8 63.7 221.7 62.5 221.7C61.4 221.7 60.9 221.6 60.9 221.6C60.9 221.6 61.5 221.5 62.5 221.5C63.7 221.5 65.2 221.4 67 221.4C70.8 221.4 76 221.3 81.8 221.3C87.6 221.3 92.8 221.3 96.6 221.4C98.4 221.4 99.9 221.5 101.1 221.5C102.2 221.6 102.7 221.6 102.7 221.6Z" fill="#E0E0E0"/>
<path d="M35 241.8H15.9V260.9H35V241.8Z" fill="#E0E0E0"/>
<path d="M69.6 241.8H50.5V260.9H69.6V241.8Z" fill="#E0E0E0"/>
<path d="M104.3 241.8H85.2V260.9H104.3V241.8Z" fill="#E0E0E0"/>
<path d="M138.9 241.8H119.8V260.9H138.9V241.8Z" fill="#E0E0E0"/>
<path d="M306.2 118.2H175V171.5H306.2V118.2Z" fill="white"/>
<path d="M306.2 171.5C306.2 171.5 306.2 171.2 306.2 170.5C306.2 169.9 306.2 168.9 306.2 167.7C306.2 165.3 306.2 161.7 306.2 157.1C306.2 147.9 306.2 134.6 306.1 118.1L306.2 118.2C272.8 118.2 226.4 118.2 175 118.3L175.2 118.1C175.2 136.8 175.2 154.8 175.2 171.4L175 171.2C213 171.2 245.8 171.3 269.1 171.3C280.7 171.3 290 171.3 296.4 171.4C299.6 171.4 302 171.4 303.7 171.4C304.5 171.4 305.2 171.4 305.6 171.4C306 171.5 306.2 171.5 306.2 171.5C306.2 171.5 306 171.5 305.6 171.5C305.2 171.5 304.5 171.5 303.7 171.5C302 171.5 299.6 171.5 296.4 171.5C290 171.5 280.8 171.5 269.2 171.6C245.9 171.6 213.1 171.7 175 171.7H174.8V171.5C174.8 154.9 174.8 136.9 174.8 118.2V118H175C226.4 118 272.8 118 306.2 118.1H306.3V118.2C306.3 134.7 306.2 148 306.2 157.3C306.2 161.9 306.2 165.4 306.2 167.9C306.2 169.1 306.2 170 306.2 170.6C306.2 171.2 306.2 171.5 306.2 171.5Z" fill="#E0E0E0"/>
<path d="M175.2 125.4C175.2 125.3 204.5 125.2 240.7 125.2C276.9 125.2 306.2 125.3 306.2 125.4C306.2 125.5 276.9 125.6 240.7 125.6C204.5 125.6 175.2 125.5 175.2 125.4Z" fill="#E0E0E0"/>
<g opacity="0.3">
<g opacity="0.3">
<path opacity="0.3" d="M179.7 123.2C180.252 123.2 180.7 122.752 180.7 122.2C180.7 121.648 180.252 121.2 179.7 121.2C179.148 121.2 178.7 121.648 178.7 122.2C178.7 122.752 179.148 123.2 179.7 123.2Z" fill="#EBEBEB"/>
</g>
</g>
<g opacity="0.3">
<g opacity="0.3">
<path opacity="0.3" d="M183 123.2C183.552 123.2 184 122.752 184 122.2C184 121.648 183.552 121.2 183 121.2C182.448 121.2 182 121.648 182 122.2C182 122.752 182.448 123.2 183 123.2Z" fill="#EBEBEB"/>
</g>
</g>
<g opacity="0.3">
<g opacity="0.3">
<path opacity="0.3" d="M186.2 123.2C186.752 123.2 187.2 122.752 187.2 122.2C187.2 121.648 186.752 121.2 186.2 121.2C185.648 121.2 185.2 121.648 185.2 122.2C185.2 122.752 185.648 123.2 186.2 123.2Z" fill="#EBEBEB"/>
</g>
</g>
<path d="M217.9 134.1H186.2V165.8H217.9V134.1Z" fill="#E0E0E0"/>
<path d="M297.2 142.5C297.2 142.6 280.9 142.7 260.8 142.7C240.7 142.7 224.4 142.6 224.4 142.5C224.4 142.4 240.7 142.3 260.8 142.3C280.8 142.3 297.2 142.4 297.2 142.5Z" fill="#E0E0E0"/>
<path d="M297.2 149C297.2 149.1 280.9 149.2 260.8 149.2C240.7 149.2 224.4 149.1 224.4 149C224.4 148.9 240.7 148.8 260.8 148.8C280.8 148.8 297.2 148.9 297.2 149Z" fill="#E0E0E0"/>
<path d="M271.2 155.5C271.2 155.5 271 155.5 270.7 155.5C270.3 155.5 269.9 155.5 269.3 155.5C268.1 155.5 266.4 155.5 264.3 155.6C260 155.6 254.2 155.6 247.7 155.7C241.2 155.7 235.4 155.7 231.1 155.6C229 155.6 227.3 155.6 226.1 155.5C225.5 155.5 225.1 155.5 224.7 155.5C224.4 155.5 224.2 155.5 224.2 155.5C224.2 155.5 224.4 155.5 224.7 155.5C225.1 155.5 225.5 155.5 226.1 155.5C227.3 155.5 229 155.5 231.1 155.4C235.4 155.4 241.2 155.4 247.7 155.3C254.1 155.3 260 155.3 264.3 155.4C266.4 155.4 268.1 155.4 269.3 155.5C269.9 155.5 270.3 155.5 270.7 155.5C271 155.4 271.2 155.4 271.2 155.5Z" fill="#E0E0E0"/>
<path d="M660.2 189.3C660.2 189.3 660.4 189 660.9 188.5C661.5 187.9 662.2 187.2 663.1 186.3C664.9 184.5 667.5 182 670.3 179.3L670.4 179.2V179.6C667.5 176.9 665 174.5 663.1 172.7C662.2 171.9 661.5 171.2 660.9 170.6C660.4 170.1 660.1 169.8 660.2 169.8C660.2 169.8 660.5 170 661.1 170.5C661.7 171 662.5 171.7 663.4 172.5C665.3 174.2 667.9 176.6 670.8 179.3L671 179.5L670.8 179.7L670.7 179.8C667.9 182.5 665.3 185 663.4 186.7C662.5 187.5 661.7 188.2 661.1 188.8C660.5 189.1 660.2 189.3 660.2 189.3Z" fill="#E0E0E0"/>
<path d="M638 169.8C638 169.8 637.8 170.1 637.3 170.6C636.7 171.2 636 171.9 635.1 172.8C633.3 174.6 630.7 177.1 627.9 179.8L627.8 179.9V179.5C630.7 182.2 633.2 184.6 635.1 186.4C636 187.2 636.7 187.9 637.3 188.5C637.8 189 638.1 189.3 638 189.3C638 189.3 637.7 189.1 637.1 188.6C636.5 188.1 635.7 187.4 634.8 186.6C632.9 184.9 630.3 182.5 627.4 179.8L627.2 179.6L627.4 179.4L627.5 179.3C630.3 176.6 632.9 174.1 634.8 172.4C635.7 171.6 636.5 170.9 637.1 170.3C637.7 170 638 169.8 638 169.8Z" fill="#E0E0E0"/>
<path d="M648.914 179.348C645.915 187.365 643.61 193.912 643.765 193.97C643.92 194.028 646.477 187.575 649.476 179.558C652.474 171.54 654.779 164.993 654.624 164.935C654.469 164.877 651.912 171.33 648.914 179.348Z" fill="#E0E0E0"/>
<path d="M685.4 207.9C685.4 207.9 685.4 207.5 685.4 206.8C685.4 206.1 685.4 205 685.4 203.7C685.4 200.9 685.4 196.9 685.3 191.8C685.3 181.5 685.2 166.9 685.2 149.2L685.4 149.4C664.8 149.4 640 149.4 613.4 149.4L613.7 149.1C613.7 170.3 613.7 190.4 613.7 207.8L613.5 207.6C634.9 207.6 652.9 207.7 665.5 207.7C671.8 207.7 676.8 207.7 680.2 207.8C681.9 207.8 683.2 207.8 684.1 207.8C684.5 207.8 684.9 207.8 685.1 207.8C685.2 207.9 685.4 207.9 685.4 207.9C685.4 207.9 685.3 207.9 685.1 207.9C684.9 207.9 684.5 207.9 684.1 207.9C683.2 207.9 681.9 207.9 680.2 207.9C676.8 207.9 671.8 207.9 665.5 208C652.8 208 634.8 208.1 613.3 208.1H613.1V207.9C613.1 190.5 613.1 170.4 613.1 149.2V149H613.4C640 149 664.8 149 685.4 149H685.6V149.2C685.6 166.9 685.5 181.6 685.5 191.9C685.5 197 685.5 201 685.4 203.8C685.4 205.1 685.4 206.2 685.4 206.9C685.4 207.6 685.4 207.9 685.4 207.9Z" fill="#E0E0E0"/>
<path d="M685.9 157.9C685.9 158 669.6 158.2 649.6 158.2C629.5 158.2 613.3 158.1 613.3 157.9C613.3 157.8 629.6 157.6 649.6 157.6C669.7 157.7 685.9 157.8 685.9 157.9Z" fill="#E0E0E0"/>
<path d="M618.2 154.6C618.752 154.6 619.2 154.152 619.2 153.6C619.2 153.048 618.752 152.6 618.2 152.6C617.648 152.6 617.2 153.048 617.2 153.6C617.2 154.152 617.648 154.6 618.2 154.6Z" fill="#E0E0E0"/>
<path d="M621.8 154.6C622.352 154.6 622.8 154.152 622.8 153.6C622.8 153.048 622.352 152.6 621.8 152.6C621.248 152.6 620.8 153.048 620.8 153.6C620.8 154.152 621.248 154.6 621.8 154.6Z" fill="#E0E0E0"/>
<path d="M625.3 154.6C625.852 154.6 626.3 154.152 626.3 153.6C626.3 153.048 625.852 152.6 625.3 152.6C624.748 152.6 624.3 153.048 624.3 153.6C624.3 154.152 624.748 154.6 625.3 154.6Z" fill="#E0E0E0"/>
<path d="M668.8 466.1C673 464 677.9 463.7 682.5 464.4C685 464.8 687.6 465.6 689.3 467.4C691 469.3 691.3 472.5 689.4 474.2C688.2 475.2 686.6 475.3 685.1 475.3C681.5 475.3 677.5 474.6 674.6 476.8C673 478 671.9 480.1 669.9 480.7C668 481.3 665.8 480.2 664.8 478.4C663.8 476.7 663.7 474.5 664.2 472.5C664.1 472.5 664.6 468.2 668.8 466.1Z" fill="#EBEBEB"/>
<path d="M659.2 447.7C661.7 451.3 666.7 450.1 669 447.9C671.3 445.7 672.3 442.5 673.1 439.4C675.1 432.4 677.2 425 675.7 417.9C675.3 415.8 674.5 413.6 673 412.1C671.5 410.5 669.2 409.6 667.1 410.1C664.6 410.8 663.1 413.2 661.9 415.5C658.6 422.3 656.9 429.9 656.8 437.5C656.8 441 657.2 444.7 659.2 447.7Z" fill="#EBEBEB"/>
<path d="M652.2 452.9C655 449.6 655.5 444.8 654.3 440.7C653.1 436.6 650.3 433.1 647.1 430.2C643.3 426.9 638.9 424.2 634.2 422.6C632.3 421.9 630.4 421.4 628.4 421.6C626.4 421.8 624.4 422.8 623.5 424.5C622.1 427.1 623.4 430.2 624.9 432.8C627.4 437.3 630.2 441.6 633.4 445.7C635.9 449 638.9 452.2 642.7 453.7C646.6 455.2 650.6 455 652.7 452.3" fill="#EBEBEB"/>
<path d="M659.1 502.5C659.1 502.5 659.2 501.9 659.3 500.8C659.4 499.6 659.6 498.1 659.7 496.3C659.9 494.4 660.2 492.1 660.7 489.7C661.2 487.2 662 484.6 663.1 481.9C664.2 479.2 665.5 476.8 667.1 474.8C668.6 472.8 670.4 471.4 672.1 470.6C673.8 469.8 675.3 469.4 676.3 469.3C677.4 469.2 677.9 469.1 677.9 469.1C677.9 469.1 677.3 469 676.2 469.1C675.1 469.2 673.6 469.4 671.8 470.3C670 471.1 668.1 472.5 666.5 474.5C664.9 476.5 663.5 479 662.4 481.7C661.3 484.4 660.5 487.1 660 489.6C659.5 492.1 659.3 494.4 659.1 496.3C659 498.2 658.9 499.8 658.9 500.8C659 501.9 659 502.5 659.1 502.5Z" fill="#E0E0E0"/>
<path d="M659.4 499C659.4 499 659.4 498.7 659.4 498.2C659.4 497.6 659.4 496.9 659.4 496C659.4 494.1 659.4 491.3 659.5 487.9C659.7 481.1 660.3 473.8 661.4 463.5C662.5 453.8 663.9 442.5 665.4 435.2C665.7 433.5 666.1 432 666.4 430.7C666.7 429.4 666.9 428.2 667.2 427.3C667.4 426.4 667.6 425.7 667.7 425.2C667.8 424.7 667.9 424.5 667.8 424.4C667.8 424.4 667.7 424.6 667.5 425.1C667.3 425.7 667.1 426.3 666.9 427.2C666.6 428.1 666.3 429.2 666 430.6C665.7 431.9 665.3 433.4 664.9 435.1C663.4 441.8 661.8 451 660.7 461.4C659.6 471.7 659.1 481.2 659 488C659 491.4 659 494.2 659.1 496.1C659.2 497 659.2 497.7 659.2 498.3C659.3 498.8 659.3 499 659.4 499Z" fill="#E0E0E0"/>
<path d="M659.4 480.9C659.4 480.9 659.4 480.1 659.4 478.6C659.3 477.1 659.1 475 658.7 472.4C658.3 469.8 657.6 466.7 656.7 463.4C656.3 461.9 655.3 458.2 652.9 452.7C649.8 445.3 645.5 439.2 641.8 435.4C640.9 434.4 640 433.7 639.2 433C638.8 432.7 638.4 432.3 638.1 432.1C637.7 431.8 637.4 431.6 637.1 431.4C635.9 430.6 635.2 430.1 635.2 430.2C635.1 430.3 637.9 432 641.5 435.8C645.1 439.6 649.2 445.6 652.3 453C654 457 655.2 460.6 656.1 463.6C657.1 466.9 657.7 470 658.2 472.5C658.7 475.1 658.9 477.2 659.1 478.6C659.3 480.1 659.4 480.9 659.4 480.9Z" fill="#E0E0E0"/>
<path d="M641.9 512.9L643.7 537.8H675.7L677.5 512.9H641.9Z" fill="#E0E0E0"/>
<path d="M681.4 503.1H638.8V512.9H681.4V503.1Z" fill="#E0E0E0"/>
<path d="M638.8 536.9V539.6H640.8H680.6V536.9H638.8Z" fill="#EBEBEB"/>
<path d="M642.7 544.4L640.8 539.6H679.1L676.8 544.4H642.7Z" fill="#E0E0E0"/>
<path d="M676.9 521C676.9 521 676.9 521.1 676.8 521.2C676.7 521.4 676.5 521.6 676.3 521.8C675.8 522.4 675.2 523.2 674.4 524.2L674.3 524.3L674.2 524.2C673 522.6 671.5 520.4 669.6 517.9H669.9C668.5 519.8 667 522 665.4 524.3L665.3 524.5L665.1 524.3C663.4 522.3 661.6 520.2 659.7 517.9H660C659.9 518 659.8 518.1 659.7 518.3C658 520.4 656.4 522.4 654.9 524.3L654.7 524.5L654.6 524.3C653 522 651.5 519.9 650.1 517.9H650.4C648.2 520.4 646.3 522.6 644.8 524.2L644.7 524.3L644.6 524.2C643.9 523 643.3 522 642.9 521.3C642.7 521 642.6 520.7 642.5 520.5C642.4 520.3 642.4 520.2 642.4 520.2C642.4 520.2 642.5 520.3 642.6 520.4C642.7 520.6 642.9 520.8 643.1 521.1C643.5 521.8 644.2 522.8 644.9 524H644.7C646.1 522.3 648 520.2 650.2 517.6L650.3 517.4L650.4 517.6C651.8 519.5 653.3 521.7 655 524H654.7C656.2 522.1 657.8 520.1 659.5 518C659.6 517.9 659.7 517.7 659.8 517.6L660 517.4L660.2 517.6C662.1 519.8 663.9 522 665.5 524H665.2C666.8 521.7 668.4 519.6 669.8 517.6L669.9 517.4L670 517.6C671.8 520.2 673.3 522.4 674.5 524H674.3C675.1 523 675.8 522.2 676.2 521.7C676.4 521.5 676.6 521.3 676.7 521.1C676.9 521.1 676.9 521 676.9 521Z" fill="#F5F5F5"/>
<path d="M660 512.9C669.886 512.9 677.9 512.81 677.9 512.7C677.9 512.59 669.886 512.5 660 512.5C650.114 512.5 642.1 512.59 642.1 512.7C642.1 512.81 650.114 512.9 660 512.9Z" fill="#F5F5F5"/>
<path d="M660.1 540.1C670.87 540.1 679.6 540.01 679.6 539.9C679.6 539.79 670.87 539.7 660.1 539.7C649.33 539.7 640.6 539.79 640.6 539.9C640.6 540.01 649.33 540.1 660.1 540.1Z" fill="#F5F5F5"/>
<path d="M588.4 539.7H92.1C84.1 539.7 77.5 533.2 77.5 525.1V200C77.5 195.7 81 192.2 85.3 192.2H596.2C599.9 192.2 602.9 195.2 602.9 198.9V525C602.9 533.2 596.4 539.7 588.4 539.7Z" fill="#4709C4"/>
<path d="M611.1 544.4H69.3C61.7 544.4 55.6 538.3 55.6 530.7V514H624.8V530.7C624.8 538.2 618.7 544.4 611.1 544.4Z" fill="#4709C4"/>
<path d="M587.4 206.1H91.7V499.5H587.4V206.1Z" fill="#E0E0E0"/>
<path d="M288.5 514L295.5 525.2H394.9L401.5 514H288.5Z" fill="#1C044E"/>
<path d="M573.9 223.1H106.4V499.5H573.9V223.1Z" fill="#1C044E"/>
<path d="M142.2 491.3C142 491.3 141.8 432.4 141.8 359.8C141.8 287.2 142 228.3 142.2 228.3C142.4 228.3 142.6 287.2 142.6 359.8C142.7 432.5 142.5 491.3 142.2 491.3Z" fill="#E0E0E0"/>
<path d="M125.2 252.6C129.397 252.6 132.8 252.421 132.8 252.2C132.8 251.979 129.397 251.8 125.2 251.8C121.003 251.8 117.6 251.979 117.6 252.2C117.6 252.421 121.003 252.6 125.2 252.6Z" fill="#E0E0E0"/>
<path d="M125.8 237.7C129.997 237.7 133.4 237.521 133.4 237.3C133.4 237.079 129.997 236.9 125.8 236.9C121.603 236.9 118.2 237.079 118.2 237.3C118.2 237.521 121.603 237.7 125.8 237.7Z" fill="#E0E0E0"/>
<path d="M125.2 268.7C129.397 268.7 132.8 268.521 132.8 268.3C132.8 268.079 129.397 267.9 125.2 267.9C121.003 267.9 117.6 268.079 117.6 268.3C117.6 268.521 121.003 268.7 125.2 268.7Z" fill="#E0E0E0"/>
<path d="M125.2 284.8C129.397 284.8 132.8 284.621 132.8 284.4C132.8 284.179 129.397 284 125.2 284C121.003 284 117.6 284.179 117.6 284.4C117.6 284.621 121.003 284.8 125.2 284.8Z" fill="#E0E0E0"/>
<path d="M125.2 300.9C129.397 300.9 132.8 300.721 132.8 300.5C132.8 300.279 129.397 300.1 125.2 300.1C121.003 300.1 117.6 300.279 117.6 300.5C117.6 300.721 121.003 300.9 125.2 300.9Z" fill="#E0E0E0"/>
<path d="M125.2 317C129.397 317 132.8 316.821 132.8 316.6C132.8 316.379 129.397 316.2 125.2 316.2C121.003 316.2 117.6 316.379 117.6 316.6C117.6 316.821 121.003 317 125.2 317Z" fill="#E0E0E0"/>
<path d="M125.2 333C129.397 333 132.8 332.821 132.8 332.6C132.8 332.379 129.397 332.2 125.2 332.2C121.003 332.2 117.6 332.379 117.6 332.6C117.6 332.821 121.003 333 125.2 333Z" fill="#E0E0E0"/>
<path d="M125.2 349.1C129.397 349.1 132.8 348.921 132.8 348.7C132.8 348.479 129.397 348.3 125.2 348.3C121.003 348.3 117.6 348.479 117.6 348.7C117.6 348.921 121.003 349.1 125.2 349.1Z" fill="#E0E0E0"/>
<path d="M125.2 365.2C129.397 365.2 132.8 365.021 132.8 364.8C132.8 364.579 129.397 364.4 125.2 364.4C121.003 364.4 117.6 364.579 117.6 364.8C117.6 365.021 121.003 365.2 125.2 365.2Z" fill="#E0E0E0"/>
<path d="M125.2 381.3C129.397 381.3 132.8 381.121 132.8 380.9C132.8 380.679 129.397 380.5 125.2 380.5C121.003 380.5 117.6 380.679 117.6 380.9C117.6 381.121 121.003 381.3 125.2 381.3Z" fill="#E0E0E0"/>
<path d="M125.2 397.4C129.397 397.4 132.8 397.221 132.8 397C132.8 396.779 129.397 396.6 125.2 396.6C121.003 396.6 117.6 396.779 117.6 397C117.6 397.221 121.003 397.4 125.2 397.4Z" fill="#E0E0E0"/>
<path d="M125.2 413.5C129.397 413.5 132.8 413.321 132.8 413.1C132.8 412.879 129.397 412.7 125.2 412.7C121.003 412.7 117.6 412.879 117.6 413.1C117.6 413.321 121.003 413.5 125.2 413.5Z" fill="#E0E0E0"/>
<path d="M125.2 429.5C129.397 429.5 132.8 429.321 132.8 429.1C132.8 428.879 129.397 428.7 125.2 428.7C121.003 428.7 117.6 428.879 117.6 429.1C117.6 429.321 121.003 429.5 125.2 429.5Z" fill="#E0E0E0"/>
<path d="M125.2 445.6C129.397 445.6 132.8 445.421 132.8 445.2C132.8 444.979 129.397 444.8 125.2 444.8C121.003 444.8 117.6 444.979 117.6 445.2C117.6 445.421 121.003 445.6 125.2 445.6Z" fill="#E0E0E0"/>
<path d="M125.2 461.7C129.397 461.7 132.8 461.521 132.8 461.3C132.8 461.079 129.397 460.9 125.2 460.9C121.003 460.9 117.6 461.079 117.6 461.3C117.6 461.521 121.003 461.7 125.2 461.7Z" fill="#E0E0E0"/>
<path d="M125.2 477.8C129.397 477.8 132.8 477.621 132.8 477.4C132.8 477.179 129.397 477 125.2 477C121.003 477 117.6 477.179 117.6 477.4C117.6 477.621 121.003 477.8 125.2 477.8Z" fill="#E0E0E0"/>
<path d="M174 251.7C184.88 251.7 193.7 251.521 193.7 251.3C193.7 251.079 184.88 250.9 174 250.9C163.12 250.9 154.3 251.079 154.3 251.3C154.3 251.521 163.12 251.7 174 251.7Z" fill="#7134EE"/>
<path d="M174 477.8C184.88 477.8 193.7 477.621 193.7 477.4C193.7 477.179 184.88 477 174 477C163.12 477 154.3 477.179 154.3 477.4C154.3 477.621 163.12 477.8 174 477.8Z" fill="#7134EE"/>
<path d="M248.6 284.4C248.6 284.6 232.1 284.8 211.7 284.8C191.3 284.8 174.8 284.6 174.8 284.4C174.8 284.2 191.3 284 211.7 284C232.1 284 248.6 284.2 248.6 284.4Z" fill="#7134EE"/>
<path d="M333.9 284.4C333.9 284.6 317.4 284.8 297 284.8C276.6 284.8 260.1 284.6 260.1 284.4C260.1 284.2 276.6 284 297 284C317.3 284 333.9 284.2 333.9 284.4Z" fill="#E0E0E0"/>
<path d="M301.3 300.5C301.3 300.7 277 300.9 247 300.9C217 300.9 192.7 300.7 192.7 300.5C192.7 300.3 217 300.1 247 300.1C276.9 300 301.3 300.2 301.3 300.5Z" fill="#E0E0E0"/>
<path d="M301.3 316.6C301.3 316.8 277 317 247 317C217 317 192.7 316.8 192.7 316.6C192.7 316.4 217 316.2 247 316.2C276.9 316.1 301.3 316.3 301.3 316.6Z" fill="#E0E0E0"/>
<path d="M376.1 364.8C376.1 365 351.8 365.2 321.8 365.2C291.8 365.2 267.5 365 267.5 364.8C267.5 364.6 291.8 364.4 321.8 364.4C351.7 364.4 376.1 364.6 376.1 364.8Z" fill="#E0E0E0"/>
<path d="M343.8 332.6C343.8 332.8 319.5 333 289.5 333C259.5 333 235.2 332.8 235.2 332.6C235.2 332.4 259.5 332.2 289.5 332.2C319.5 332.2 343.8 332.4 343.8 332.6Z" fill="#E0E0E0"/>
<path d="M476.6 332.6C476.6 332.8 452.3 333 422.3 333C392.3 333 368 332.8 368 332.6C368 332.4 392.3 332.2 422.3 332.2C452.3 332.2 476.6 332.4 476.6 332.6Z" fill="#E0E0E0"/>
<path d="M430.4 300.5C430.4 300.7 406.1 300.9 376.1 300.9C346.1 300.9 321.8 300.7 321.8 300.5C321.8 300.3 346.1 300.1 376.1 300.1C406.1 300 430.4 300.2 430.4 300.5Z" fill="#FAFAFA"/>
<path d="M505.5 364.8C505.5 365 481.2 365.2 451.2 365.2C421.2 365.2 396.9 365 396.9 364.8C396.9 364.6 421.2 364.4 451.2 364.4C481.2 364.4 505.5 364.6 505.5 364.8Z" fill="#FAFAFA"/>
<path d="M490.5 316.6C490.5 316.8 452.7 317 406.1 317C359.5 317 321.7 316.8 321.7 316.6C321.7 316.4 359.5 316.2 406.1 316.2C452.7 316.1 490.5 316.3 490.5 316.6Z" fill="#4709C4"/>
<path d="M174 268.7C184.88 268.7 193.7 268.521 193.7 268.3C193.7 268.079 184.88 267.9 174 267.9C163.12 267.9 154.3 268.079 154.3 268.3C154.3 268.521 163.12 268.7 174 268.7Z" fill="#FAFAFA"/>
<path d="M174 461.7C184.88 461.7 193.7 461.521 193.7 461.3C193.7 461.079 184.88 460.9 174 460.9C163.12 460.9 154.3 461.079 154.3 461.3C154.3 461.521 163.12 461.7 174 461.7Z" fill="#FAFAFA"/>
<path d="M193.5 333C204.38 333 213.2 332.821 213.2 332.6C213.2 332.379 204.38 332.2 193.5 332.2C182.62 332.2 173.8 332.379 173.8 332.6C173.8 332.821 182.62 333 193.5 333Z" fill="#FAFAFA"/>
<path d="M509.4 333C520.28 333 529.1 332.821 529.1 332.6C529.1 332.379 520.28 332.2 509.4 332.2C498.52 332.2 489.7 332.379 489.7 332.6C489.7 332.821 498.52 333 509.4 333Z" fill="#7134EE"/>
<path d="M248.6 396.9C248.6 397.1 232.1 397.3 211.7 397.3C191.3 397.3 174.8 397.1 174.8 396.9C174.8 396.7 191.3 396.5 211.7 396.5C232.1 396.4 248.6 396.6 248.6 396.9Z" fill="#7134EE"/>
<path d="M333.9 396.9C333.9 397.1 317.4 397.3 297 397.3C276.6 397.3 260.1 397.1 260.1 396.9C260.1 396.7 276.6 396.5 297 396.5C317.3 396.4 333.9 396.6 333.9 396.9Z" fill="#E0E0E0"/>
<path d="M301.3 413C301.3 413.2 277 413.4 247 413.4C217 413.4 192.7 413.2 192.7 413C192.7 412.8 217 412.6 247 412.6C276.9 412.5 301.3 412.7 301.3 413Z" fill="#E0E0E0"/>
<path d="M301.3 429C301.3 429.2 277 429.4 247 429.4C217 429.4 192.7 429.2 192.7 429C192.7 428.8 217 428.6 247 428.6C276.9 428.6 301.3 428.8 301.3 429Z" fill="#E0E0E0"/>
<path d="M343.8 445.1C343.8 445.3 319.5 445.5 289.5 445.5C259.5 445.5 235.2 445.3 235.2 445.1C235.2 444.9 259.5 444.7 289.5 444.7C319.5 444.7 343.8 444.9 343.8 445.1Z" fill="#E0E0E0"/>
<path d="M476.6 445.1C476.6 445.3 452.3 445.5 422.3 445.5C392.3 445.5 368 445.3 368 445.1C368 444.9 392.3 444.7 422.3 444.7C452.3 444.7 476.6 444.9 476.6 445.1Z" fill="#E0E0E0"/>
<path d="M430.4 413C430.4 413.2 406.1 413.4 376.1 413.4C346.1 413.4 321.8 413.2 321.8 413C321.8 412.8 346.1 412.6 376.1 412.6C406.1 412.5 430.4 412.7 430.4 413Z" fill="#FAFAFA"/>
<path d="M490.5 429C490.5 429.2 452.7 429.4 406.1 429.4C359.5 429.4 321.7 429.2 321.7 429C321.7 428.8 359.5 428.6 406.1 428.6C452.7 428.6 490.5 428.8 490.5 429Z" fill="#4709C4"/>
<path d="M193.5 445.5C204.38 445.5 213.2 445.321 213.2 445.1C213.2 444.879 204.38 444.7 193.5 444.7C182.62 444.7 173.8 444.879 173.8 445.1C173.8 445.321 182.62 445.5 193.5 445.5Z" fill="#FAFAFA"/>
<path d="M509.4 445.5C520.28 445.5 529.1 445.321 529.1 445.1C529.1 444.879 520.28 444.7 509.4 444.7C498.52 444.7 489.7 444.879 489.7 445.1C489.7 445.321 498.52 445.5 509.4 445.5Z" fill="#7134EE"/>
<path d="M539.6 524.1C539.6 524.2 439 524.4 314.8 524.4C190.6 524.4 90 524.3 90 524.1C90 524 190.6 523.8 314.8 523.8C439 523.9 539.6 524 539.6 524.1Z" fill="#1C044E"/>
<path d="M174.9 436.2C161.1 422.1 139.5 416.2 120.4 421.3C137 432.4 155.6 438.3 175.5 438.5" fill="#FEC063"/>
<path d="M156.5 370.8C158.8 354.8 152.5 336.7 140.5 325C140.1 340.9 146.8 358.8 156.5 370.8Z" fill="#FEC063"/>
<path d="M166.1 401.1C157.5 384.7 143.5 371.3 126.8 363.5C131.8 382 147.6 397.1 166.3 401.3" fill="#FEC063"/>
<path d="M168.1 406.9C158.4 407.2 148.6 406.8 139.2 404.4C129.8 401.9 120.9 397.2 114.6 389.7C133.5 389.7 152.3 395.5 167.9 406" fill="#FEC063"/>
<path d="M163.2 387.7C168.1 369.3 176.2 356.5 190.7 346.2C191.8 355.2 189.6 364.5 184.6 372C179.6 379.5 171.8 385.2 163.2 387.7Z" fill="#FEC063"/>
<path d="M199.7 419.5C200 408.8 193 398.3 183.1 394.2C184 403.7 191.4 414.7 199.7 419.5Z" fill="#FEC063"/>
<path d="M204.4 403.9C205.5 388.5 216.4 374.3 231 369.2C227.7 384.7 218.8 397.5 204.4 403.9Z" fill="#FEC063"/>
<path d="M197.4 431.5C200.8 426.6 206.4 423.6 212.2 422.1C218 420.6 224 420.5 230 420.3C222 429.2 209.9 434.2 197.9 433.7" fill="#FEC063"/>
<path d="M190.5 470.8C201.3 467.5 213.2 468.3 223.4 473.2C233.6 478 241.8 486.7 246.1 497.2C225.8 493.3 205.9 484.3 190.5 470.8Z" fill="#FEC063"/>
<path d="M168.3 457.2C171.7 467.1 171 479.1 163.6 487.6C160.5 477.4 162.3 465.9 168.3 457.2Z" fill="#FEC063"/>
<path d="M155.2 451.7C154.3 464.4 146.1 476.4 134.6 482C134 482.3 133.4 482.5 132.8 482.3C131.9 481.9 131.8 480.7 131.9 479.7C133.4 466.9 142.8 454.6 155.2 451.7Z" fill="#FEC063"/>
<path d="M146.7 450.4C141 456.5 132.8 460.2 124.4 460.2C116.1 460.2 107.7 456.7 102 450.6C116.2 449 132.6 448 146.7 450.4Z" fill="#FEC063"/>
<path d="M144.5 336.9C144.5 336.9 144.5 337 144.6 337.3C144.7 337.6 144.8 338 145 338.5C145.4 339.6 146 341.1 146.7 343.1C147.5 345.1 148.3 347.5 149.4 350.4C149.9 351.8 150.5 353.3 151 355C151.6 356.6 152.2 358.3 152.8 360.1C155.3 367.3 158.1 375.9 161.1 385.5C164.1 395.1 167.2 405.8 170.2 417C173.2 428.2 175.9 439 178.2 448.8C180.4 458.6 182.3 467.5 183.7 475C184.1 476.9 184.4 478.7 184.7 480.3C185 482 185.3 483.6 185.5 485.1C186 488.1 186.5 490.7 186.8 492.8C187.1 494.9 187.4 496.5 187.5 497.6C187.6 498.1 187.7 498.6 187.7 498.9C187.7 499.2 187.8 499.3 187.8 499.3C187.8 499.3 187.8 499.2 187.8 498.9C187.8 498.6 187.7 498.2 187.6 497.6C187.4 496.5 187.2 494.8 187 492.7C186.7 490.6 186.3 488 185.8 485C185.6 483.5 185.3 481.9 185 480.2C184.7 478.5 184.4 476.7 184 474.9C182.7 467.4 180.8 458.5 178.6 448.7C176.3 438.9 173.7 428.1 170.7 416.9C167.6 405.7 164.5 395.1 161.5 385.4C158.5 375.8 155.6 367.2 153.1 360C152.5 358.2 151.9 356.5 151.3 354.9C150.7 353.3 150.1 351.8 149.6 350.4C148.6 347.6 147.6 345.1 146.8 343.1C146 341.1 145.4 339.6 145 338.5C144.8 338 144.6 337.6 144.5 337.3C144.6 337 144.5 336.9 144.5 336.9Z" fill="#FEC063"/>
<path d="M222.5 377.5C222.5 377.5 222.4 377.6 222.3 377.7C222.1 377.9 221.9 378.1 221.6 378.4C221 379 220.1 380 219.1 381.2C217 383.7 213.9 387.4 210.7 392.3C207.5 397.2 204.2 403.5 202 411C199.7 418.4 198.2 426.9 196.8 435.8C193.9 453.5 190.4 469.4 187.8 480.8C186.5 486.5 185.5 491.1 184.7 494.4C184.4 496 184.1 497.2 183.9 498.1C183.8 498.5 183.8 498.8 183.7 499.1C183.7 499.3 183.6 499.4 183.7 499.4C183.7 499.4 183.7 499.3 183.8 499.1C183.9 498.9 183.9 498.5 184.1 498.1C184.3 497.2 184.6 496 185 494.4C185.8 491.2 186.9 486.6 188.2 480.9C190.9 469.5 194.5 453.6 197.4 435.9C198.8 427.1 200.3 418.6 202.6 411.2C204.8 403.8 208 397.5 211.2 392.6C214.3 387.6 217.3 383.9 219.4 381.4C220.4 380.1 221.3 379.2 221.8 378.5C222.1 378.2 222.3 377.9 222.4 377.8C222.5 377.6 222.5 377.5 222.5 377.5Z" fill="#FEC063"/>
<path d="M142.4 449.8C142.4 449.8 142.6 449.9 142.9 449.9C143.3 449.9 143.8 450 144.4 450.1C144.7 450.1 145.1 450.2 145.5 450.2C145.9 450.3 146.3 450.3 146.8 450.4C147.7 450.5 148.7 450.7 149.8 450.9C150.4 451 151 451.1 151.6 451.3C152.2 451.5 152.8 451.6 153.5 451.8C154.8 452.1 156.2 452.6 157.6 453C160.5 454 163.5 455.3 166.6 457C169.7 458.7 172.4 460.7 174.7 462.6C175.8 463.6 176.9 464.6 177.8 465.6C178.8 466.5 179.5 467.5 180.2 468.4C181 469.3 181.5 470.2 182 470.9C182.5 471.6 182.9 472.3 183.2 472.9C183.5 473.4 183.7 473.8 184 474.2C184.2 474.5 184.3 474.6 184.3 474.6C184.3 474.6 184.2 474.4 184.1 474.1C183.9 473.7 183.7 473.3 183.4 472.8C183.1 472.2 182.7 471.5 182.2 470.8C181.7 470 181.2 469.1 180.4 468.2C179.7 467.3 178.9 466.3 178 465.3C177.1 464.3 176 463.3 174.9 462.3C172.6 460.3 169.9 458.3 166.8 456.6C163.7 454.9 160.6 453.6 157.7 452.6C156.2 452.2 154.9 451.7 153.5 451.4C152.8 451.2 152.2 451.1 151.6 450.9C151 450.8 150.4 450.7 149.8 450.6C148.7 450.4 147.6 450.3 146.7 450.2C146.3 450.1 145.8 450.1 145.4 450.1C145 450.1 144.7 450.1 144.3 450C143.7 450 143.2 450 142.8 449.9C142.6 449.7 142.4 449.7 142.4 449.8Z" fill="#FEC063"/>
<path d="M138.4 377.8C138.4 377.8 138.7 378.2 139.4 378.8C140.2 379.5 141.2 380.3 142.3 381.3C144.8 383.4 148.2 386.3 152.1 389.5C155.9 392.7 159.4 395.5 162 397.6C163.2 398.6 164.2 399.4 165 400C165.7 400.6 166.1 400.9 166.2 400.8C166.2 400.8 165.9 400.4 165.2 399.8C164.4 399.1 163.4 398.3 162.3 397.3C159.8 395.2 156.4 392.3 152.5 389.1C148.7 385.9 145.2 383.1 142.6 381C141.4 380 140.4 379.2 139.6 378.6C138.8 378.1 138.4 377.8 138.4 377.8Z" fill="#1C044E"/>
<path d="M151.696 401.301C142.481 398.579 134.972 396.501 134.925 396.66C134.878 396.818 142.311 399.154 151.526 401.877C160.742 404.599 168.251 406.677 168.298 406.518C168.345 406.359 160.912 404.024 151.696 401.301Z" fill="#1C044E"/>
<path d="M162.4 389.1C162.4 389.1 162.7 388.7 163.2 388C163.7 387.2 164.4 386.2 165.2 385C166.9 382.5 169.2 379 172 375.4C174.8 371.7 177.5 368.5 179.5 366.3C180.4 365.2 181.2 364.3 181.9 363.6C182.5 363 182.8 362.6 182.7 362.6C182.7 362.6 182.3 362.9 181.7 363.5C181.1 364.1 180.2 365 179.2 366.1C177.1 368.3 174.4 371.5 171.6 375.2C168.8 378.9 166.5 382.4 164.9 384.9C164.1 386.2 163.5 387.2 163.1 388C162.6 388.7 162.4 389.1 162.4 389.1Z" fill="#1C044E"/>
<path d="M188.3 399.5C188.2 399.5 188.9 400.6 190 402.4C191.1 404.2 192.6 406.6 194.2 409.3C195.8 412.1 197.1 414.6 198 416.4C198.9 418.3 199.5 419.4 199.6 419.4C199.7 419.4 199.2 418.2 198.4 416.3C197.6 414.4 196.3 411.8 194.7 409.1C193.1 406.3 191.6 403.9 190.4 402.2C189.2 400.5 188.4 399.5 188.3 399.5Z" fill="#1C044E"/>
<path d="M197.2 432C197.2 432.1 198.7 431.4 201 430.3C203.3 429.3 206.6 427.9 210.3 426.6C214 425.3 217.4 424.4 219.8 423.7C222.3 423.1 223.8 422.7 223.8 422.6C223.8 422.6 223.4 422.6 222.7 422.7C222 422.8 221 423 219.7 423.3C217.2 423.8 213.8 424.7 210.1 426C206.4 427.3 203.2 428.7 200.9 429.9C199.8 430.5 198.8 431 198.2 431.3C197.5 431.8 197.2 432 197.2 432Z" fill="#1C044E"/>
<path d="M190.2 470.9C190.2 470.9 190.4 471 190.7 471.1C191.1 471.2 191.5 471.3 192 471.4C193.3 471.7 194.9 472.1 197 472.5C201.2 473.5 207 474.7 213.2 476.8C219.4 478.9 224.7 481.6 228.3 483.9C230.1 485.1 231.5 486.1 232.5 486.8C233.5 487.5 234 487.9 234 487.9C234 487.9 233.9 487.8 233.7 487.5C233.5 487.3 233.1 487 232.7 486.6C231.8 485.8 230.4 484.7 228.6 483.5C225 481.1 219.7 478.3 213.5 476.2C207.3 474.1 201.4 472.9 197.2 472.1C195.2 471.7 193.5 471.4 192.2 471.1C190.9 471 190.2 470.8 190.2 470.9Z" fill="#1C044E"/>
<path d="M166.419 468.719C165.476 475.167 164.845 480.414 165.008 480.438C165.172 480.462 166.07 475.254 167.013 468.806C167.956 462.357 168.587 457.11 168.423 457.086C168.259 457.062 167.362 462.27 166.419 468.719Z" fill="#1C044E"/>
<path d="M138.7 470.9C138.8 470.9 139.6 469.9 141.1 468.1C142.5 466.3 144.5 463.9 146.7 461.3C148.9 458.7 151 456.3 152.5 454.6C154 452.9 154.9 451.8 154.9 451.8C154.9 451.8 154.6 452 154.1 452.4C153.6 452.8 153 453.5 152.2 454.3C150.6 455.9 148.5 458.3 146.3 460.9C144.1 463.6 142.1 466 140.8 467.9C140.1 468.8 139.6 469.6 139.2 470.1C138.9 470.6 138.7 470.9 138.7 470.9Z" fill="#1C044E"/>
<path d="M208.2 495.3V508.2H205L193.4 544.6H167.9L156.7 508.6L152.4 508.2V495.3H208.2Z" fill="#1C044E"/>
<g opacity="0.3">
<path opacity="0.3" d="M208.2 495.3V508.2H205L193.4 544.6H167.9L156.7 508.6L152.4 508.2V495.3H208.2Z" fill="black"/>
</g>
<path d="M179.7 508.9C193.618 508.9 204.9 508.766 204.9 508.6C204.9 508.434 193.618 508.3 179.7 508.3C165.782 508.3 154.5 508.434 154.5 508.6C154.5 508.766 165.782 508.9 179.7 508.9Z" fill="#1C044E"/>
<path d="M136.1 425.2C136.1 425.2 136.7 425.4 137.7 425.6C138.9 425.9 140.4 426.2 142.2 426.7C146 427.6 151.2 429.1 156.8 431C162.4 432.9 167.4 434.9 171 436.4C172.7 437.2 174.1 437.8 175.2 438.3C176.2 438.7 176.8 439 176.8 438.9C176.8 438.9 176.3 438.6 175.3 438.1C174.3 437.6 172.9 436.9 171.1 436.1C167.6 434.5 162.6 432.4 156.9 430.5C151.2 428.6 146 427.2 142.2 426.4C140.3 426 138.7 425.7 137.7 425.5C136.7 425.2 136.1 425.1 136.1 425.2Z" fill="#1C044E"/>
<path d="M180.7 529.1C190.475 529.1 198.4 528.966 198.4 528.8C198.4 528.634 190.475 528.5 180.7 528.5C170.925 528.5 163 528.634 163 528.8C163 528.966 170.925 529.1 180.7 529.1Z" fill="#FAFAFA"/>
<path d="M180.8 526.1C191.183 526.1 199.6 525.966 199.6 525.8C199.6 525.634 191.183 525.5 180.8 525.5C170.417 525.5 162 525.634 162 525.8C162 525.966 170.417 526.1 180.8 526.1Z" fill="#FAFAFA"/>
<path d="M685.6 544.6C685.6 544.7 533.2 544.9 345.2 544.9C157.1 544.9 4.70001 544.8 4.70001 544.6C4.70001 544.5 157.1 544.3 345.2 544.3C533.2 544.4 685.6 544.5 685.6 544.6Z" fill="#1C044E"/>
<path d="M592.2 164.3H324.2V330.3H549.8L563.8 362.4L576.2 330.3H592.2V164.3Z" fill="#FAFAFA"/>
<path d="M592.2 164.3C592.2 165.9 592.3 228.3 592.4 330.3V330.5H592.2C587.3 330.5 581.8 330.5 576.2 330.5L576.4 330.4C572.5 340.5 568.3 351.3 564 362.5L563.8 363L563.6 362.5C559.2 352.4 554.5 341.5 549.6 330.4L549.8 330.5C489.2 330.5 419.5 330.5 345.8 330.5C338.6 330.5 331.4 330.5 324.2 330.5H324V330.2C324 271.1 324 214.9 324 164.2V164H324.2C482.4 164.2 590.1 164.3 592.2 164.3C590.1 164.3 482.4 164.4 324.2 164.5L324.4 164.3C324.4 215 324.4 271.1 324.4 330.3L324.1 330C331.2 330 338.4 330 345.7 330C419.4 330 489.1 330 549.7 330H549.9L550 330.1C554.9 341.3 559.6 352.2 564 362.2H563.6C567.9 351 572.1 340.1 576 330.1L576.1 330H576.2C581.8 330 587.3 330 592.2 330L592 330.2C592.1 228.3 592.2 165.9 592.2 164.3Z" fill="#1C044E"/>
<path d="M592.1 180.5C592.1 180.7 532.2 180.9 458.4 180.9C384.5 180.9 324.7 180.7 324.7 180.5C324.7 180.3 384.6 180.1 458.4 180.1C532.2 180.1 592.1 180.3 592.1 180.5Z" fill="#1C044E"/>
<path d="M336.3 175.4C337.515 175.4 338.5 174.415 338.5 173.2C338.5 171.985 337.515 171 336.3 171C335.085 171 334.1 171.985 334.1 173.2C334.1 174.415 335.085 175.4 336.3 175.4Z" fill="#1C044E"/>
<path d="M344.2 175.4C345.415 175.4 346.4 174.415 346.4 173.2C346.4 171.985 345.415 171 344.2 171C342.985 171 342 171.985 342 173.2C342 174.415 342.985 175.4 344.2 175.4Z" fill="#1C044E"/>
<path d="M352.2 175.4C353.415 175.4 354.4 174.415 354.4 173.2C354.4 171.985 353.415 171 352.2 171C350.985 171 350 171.985 350 173.2C350 174.415 350.985 175.4 352.2 175.4Z" fill="#1C044E"/>
<path d="M353.5 210.2L347.1 212.7L353.5 215.2V216.7L345.5 213.5V212L353.5 208.8V210.2Z" fill="#1C044E"/>
<path d="M360.1 203.8H361.7L355.8 220.7H354.2L360.1 203.8Z" fill="#1C044E"/>
<path d="M370.2 211.9V213.4L362.2 216.6V215.1L368.6 212.6L362.2 210.1V208.6L370.2 211.9Z" fill="#1C044E"/>
<path d="M372.2 217.8C372.2 217.1 372.8 216.6 373.4 216.6C374 216.6 374.6 217.1 374.6 217.8C374.6 218.5 374.1 219 373.4 219C372.8 219 372.2 218.5 372.2 217.8Z" fill="#1C044E"/>
<path d="M376.3 217.8C376.3 217.1 376.9 216.6 377.5 216.6C378.1 216.6 378.7 217.1 378.7 217.8C378.7 218.5 378.2 219 377.5 219C376.9 219 376.3 218.5 376.3 217.8Z" fill="#1C044E"/>
<path d="M380.4 217.8C380.4 217.1 381 216.6 381.6 216.6C382.2 216.6 382.8 217.1 382.8 217.8C382.8 218.5 382.3 219 381.6 219C380.9 219 380.4 218.5 380.4 217.8Z" fill="#1C044E"/>
<path d="M522.7 233.9C522.7 234.1 483.1 234.3 434.2 234.3C385.3 234.3 345.7 234.1 345.7 233.9C345.7 233.7 385.3 233.5 434.2 233.5C483.1 233.5 522.7 233.7 522.7 233.9Z" fill="#4709C4"/>
<path d="M543.1 234.8C547.794 234.8 551.6 234.621 551.6 234.4C551.6 234.179 547.794 234 543.1 234C538.406 234 534.6 234.179 534.6 234.4C534.6 234.621 538.406 234.8 543.1 234.8Z" fill="#1C044E"/>
<path d="M567.1 234.8C572.236 234.8 576.4 234.621 576.4 234.4C576.4 234.179 572.236 234 567.1 234C561.964 234 557.8 234.179 557.8 234.4C557.8 234.621 561.964 234.8 567.1 234.8Z" fill="#1C044E"/>
<path d="M458.4 248.8C458.4 249 433.2 249.2 402.2 249.2C371.1 249.2 346 249 346 248.8C346 248.6 371.2 248.4 402.2 248.4C433.2 248.4 458.4 248.6 458.4 248.8Z" fill="#4709C4"/>
<path d="M457.6 304.4C457.6 304.6 432.4 304.8 401.4 304.8C370.3 304.8 345.2 304.6 345.2 304.4C345.2 304.2 370.4 304 401.4 304C432.4 304 457.6 304.2 457.6 304.4Z" fill="#4709C4"/>
<path d="M484 249.2C492.45 249.2 499.3 249.021 499.3 248.8C499.3 248.579 492.45 248.4 484 248.4C475.55 248.4 468.7 248.579 468.7 248.8C468.7 249.021 475.55 249.2 484 249.2Z" fill="#1C044E"/>
<path d="M483.6 304.8C492.05 304.8 498.9 304.621 498.9 304.4C498.9 304.179 492.05 304 483.6 304C475.15 304 468.3 304.179 468.3 304.4C468.3 304.621 475.15 304.8 483.6 304.8Z" fill="#1C044E"/>
<path d="M349.5 256.8C351.599 256.8 353.3 256.621 353.3 256.4C353.3 256.179 351.599 256 349.5 256C347.401 256 345.7 256.179 345.7 256.4C345.7 256.621 347.401 256.8 349.5 256.8Z" fill="#7134EE"/>
<path d="M371.2 256.9C375.729 256.9 379.4 256.721 379.4 256.5C379.4 256.279 375.729 256.1 371.2 256.1C366.671 256.1 363 256.279 363 256.5C363 256.721 366.671 256.9 371.2 256.9Z" fill="#1C044E"/>
<path d="M389.1 256.9C393.021 256.9 396.2 256.721 396.2 256.5C396.2 256.279 393.021 256.1 389.1 256.1C385.179 256.1 382 256.279 382 256.5C382 256.721 385.179 256.9 389.1 256.9Z" fill="#1C044E"/>
<path d="M410.2 256.9C414.176 256.9 417.4 256.721 417.4 256.5C417.4 256.279 414.176 256.1 410.2 256.1C406.224 256.1 403 256.279 403 256.5C403 256.721 406.224 256.9 410.2 256.9Z" fill="#1C044E"/>
<path d="M429.4 256.9C432.99 256.9 435.9 256.721 435.9 256.5C435.9 256.279 432.99 256.1 429.4 256.1C425.81 256.1 422.9 256.279 422.9 256.5C422.9 256.721 425.81 256.9 429.4 256.9Z" fill="#1C044E"/>
<path d="M497.4 256.5C497.4 256.7 484.5 256.9 468.6 256.9C452.7 256.9 439.8 256.7 439.8 256.5C439.8 256.3 452.7 256.1 468.6 256.1C484.6 256.2 497.4 256.3 497.4 256.5Z" fill="#1C044E"/>
<path d="M349 266.4C350.823 266.4 352.3 266.221 352.3 266C352.3 265.779 350.823 265.6 349 265.6C347.177 265.6 345.7 265.779 345.7 266C345.7 266.221 347.177 266.4 349 266.4Z" fill="#7134EE"/>
<path d="M349.1 276.4C350.978 276.4 352.5 276.221 352.5 276C352.5 275.779 350.978 275.6 349.1 275.6C347.222 275.6 345.7 275.779 345.7 276C345.7 276.221 347.222 276.4 349.1 276.4Z" fill="#7134EE"/>
<path d="M349.1 287.6C350.978 287.6 352.5 287.421 352.5 287.2C352.5 286.979 350.978 286.8 349.1 286.8C347.222 286.8 345.7 286.979 345.7 287.2C345.7 287.421 347.222 287.6 349.1 287.6Z" fill="#7134EE"/>
<path d="M389.1 287.1C403.128 287.1 414.5 286.921 414.5 286.7C414.5 286.479 403.128 286.3 389.1 286.3C375.072 286.3 363.7 286.479 363.7 286.7C363.7 286.921 375.072 287.1 389.1 287.1Z" fill="#1C044E"/>
<path d="M385.9 276.4C399.265 276.4 410.1 276.221 410.1 276C410.1 275.779 399.265 275.6 385.9 275.6C372.535 275.6 361.7 275.779 361.7 276C361.7 276.221 372.535 276.4 385.9 276.4Z" fill="#1C044E"/>
<path d="M527 265.5C527 265.7 490.1 265.9 444.6 265.9C399.1 265.9 362.2 265.7 362.2 265.5C362.2 265.3 399.1 265.1 444.6 265.1C490.1 265.2 527 265.3 527 265.5Z" fill="#1C044E"/>
<path d="M608.7 232.2V373.2L586.8 391.5H608.7H610.8H701.4V232.2H608.7Z" fill="#FAFAFA"/>
<path d="M608.7 232.2C608.7 232.2 609.2 232.2 610.3 232.2C611.4 232.2 613 232.2 615.1 232.2C619.3 232.2 625.6 232.2 633.6 232.2C649.7 232.2 672.9 232.1 701.5 232.1H701.7V232.3C701.7 274.9 701.7 330.5 701.8 391.6V391.9H701.5C696.4 391.9 690.9 391.9 685.4 391.9C650.5 391.9 617.1 391.9 586.8 391.9H586.1L586.6 391.5C594.2 385.2 601.5 379.1 608.5 373.2L608.4 373.4C608.4 331.2 608.5 295.9 608.5 271.2C608.5 258.9 608.5 249.1 608.6 242.5C608.6 239.2 608.6 236.7 608.6 234.9C608.6 234.1 608.6 233.4 608.6 233C608.7 232.4 608.7 232.2 608.7 232.2C608.7 232.2 608.7 232.4 608.7 232.9C608.7 233.3 608.7 234 608.7 234.9C608.7 236.6 608.7 239.2 608.7 242.5C608.7 249.2 608.7 258.9 608.8 271.3C608.8 296 608.9 331.2 608.9 373.4V373.5L608.8 373.6C601.8 379.5 594.5 385.6 586.9 391.9L586.7 391.5C617 391.5 650.4 391.5 685.3 391.5C690.8 391.5 696.3 391.5 701.4 391.5L701.1 391.8C701.1 330.6 701.1 275 701.2 232.5L701.4 232.7C672.9 232.7 649.7 232.6 633.6 232.6C625.6 232.6 619.3 232.6 615.1 232.6C613 232.6 611.4 232.6 610.3 232.6C609.3 232.2 608.7 232.2 608.7 232.2Z" fill="#1C044E"/>
<path d="M615.2 241.1C616.249 241.1 617.1 240.249 617.1 239.2C617.1 238.151 616.249 237.3 615.2 237.3C614.151 237.3 613.3 238.151 613.3 239.2C613.3 240.249 614.151 241.1 615.2 241.1Z" fill="#1C044E"/>
<path d="M622 241.1C623.049 241.1 623.9 240.249 623.9 239.2C623.9 238.151 623.049 237.3 622 237.3C620.951 237.3 620.1 238.151 620.1 239.2C620.1 240.249 620.951 241.1 622 241.1Z" fill="#1C044E"/>
<path d="M628.8 241.1C629.849 241.1 630.7 240.249 630.7 239.2C630.7 238.151 629.849 237.3 628.8 237.3C627.751 237.3 626.9 238.151 626.9 239.2C626.9 240.249 627.751 241.1 628.8 241.1Z" fill="#1C044E"/>
<path d="M675.9 282.6C675.9 282.8 664.1 282.9 649.6 282.9C635.1 282.9 623.3 282.8 623.3 282.6C623.3 282.4 635.1 282.3 649.6 282.3C664.2 282.3 675.9 282.5 675.9 282.6Z" fill="#7134EE"/>
<path d="M686.9 295.4C686.9 295.6 672.6 295.7 654.9 295.7C637.2 295.7 622.9 295.6 622.9 295.4C622.9 295.2 637.2 295.1 654.9 295.1C672.6 295.1 686.9 295.2 686.9 295.4Z" fill="#7134EE"/>
<path d="M689.5 343C689.5 343.2 674.2 343.3 655.4 343.3C636.6 343.3 621.3 343.2 621.3 343C621.3 342.8 636.6 342.7 655.4 342.7C674.2 342.7 689.5 342.8 689.5 343Z" fill="#7134EE"/>
<path d="M625.1 302.2C626.867 302.2 628.3 302.066 628.3 301.9C628.3 301.734 626.867 301.6 625.1 301.6C623.333 301.6 621.9 301.734 621.9 301.9C621.9 302.066 623.333 302.2 625.1 302.2Z" fill="#7134EE"/>
<path d="M643.7 302.3C647.621 302.3 650.8 302.166 650.8 302C650.8 301.834 647.621 301.7 643.7 301.7C639.779 301.7 636.6 301.834 636.6 302C636.6 302.166 639.779 302.3 643.7 302.3Z" fill="#7134EE"/>
<path d="M659 302.3C662.314 302.3 665 302.166 665 302C665 301.834 662.314 301.7 659 301.7C655.686 301.7 653 301.834 653 302C653 302.166 655.686 302.3 659 302.3Z" fill="#7134EE"/>
<path d="M624.6 310.5C626.146 310.5 627.4 310.366 627.4 310.2C627.4 310.034 626.146 309.9 624.6 309.9C623.054 309.9 621.8 310.034 621.8 310.2C621.8 310.366 623.054 310.5 624.6 310.5Z" fill="#7134EE"/>
<path d="M624.8 319C626.402 319 627.7 318.866 627.7 318.7C627.7 318.534 626.402 318.4 624.8 318.4C623.198 318.4 621.9 318.534 621.9 318.7C621.9 318.866 623.198 319 624.8 319Z" fill="#7134EE"/>
<path d="M624.8 328.6C626.402 328.6 627.7 328.466 627.7 328.3C627.7 328.134 626.402 328 624.8 328C623.198 328 621.9 328.134 621.9 328.3C621.9 328.466 623.198 328.6 624.8 328.6Z" fill="#7134EE"/>
<path d="M659 328.1C670.985 328.1 680.7 327.966 680.7 327.8C680.7 327.634 670.985 327.5 659 327.5C647.015 327.5 637.3 327.634 637.3 327.8C637.3 327.966 647.015 328.1 659 328.1Z" fill="#7134EE"/>
<path d="M656.2 319C667.632 319 676.9 318.866 676.9 318.7C676.9 318.534 667.632 318.4 656.2 318.4C644.768 318.4 635.5 318.534 635.5 318.7C635.5 318.866 644.768 319 656.2 319Z" fill="#7134EE"/>
<path d="M629 356C630.602 356 631.9 355.866 631.9 355.7C631.9 355.534 630.602 355.4 629 355.4C627.398 355.4 626.1 355.534 626.1 355.7C626.1 355.866 627.398 356 629 356Z" fill="#7134EE"/>
<path d="M629 365.6C630.602 365.6 631.9 365.466 631.9 365.3C631.9 365.134 630.602 365 629 365C627.398 365 626.1 365.134 626.1 365.3C626.1 365.466 627.398 365.6 629 365.6Z" fill="#7134EE"/>
<path d="M663.2 365.2C675.185 365.2 684.9 365.066 684.9 364.9C684.9 364.734 675.185 364.6 663.2 364.6C651.215 364.6 641.5 364.734 641.5 364.9C641.5 365.066 651.215 365.2 663.2 365.2Z" fill="#7134EE"/>
<path d="M660.4 356C671.832 356 681.1 355.866 681.1 355.7C681.1 355.534 671.832 355.4 660.4 355.4C648.968 355.4 639.7 355.534 639.7 355.7C639.7 355.866 648.968 356 660.4 356Z" fill="#7134EE"/>
<path d="M692.3 309.7C692.3 309.9 679.7 310 664.1 310C648.5 310 635.9 309.9 635.9 309.7C635.9 309.5 648.5 309.4 664.1 309.4C679.7 309.4 692.3 309.6 692.3 309.7Z" fill="#7134EE"/>
<path d="M700.6 246.5C700.6 246.7 680.2 246.8 655.1 246.8C630 246.8 609.6 246.7 609.6 246.5C609.6 246.3 630 246.2 655.1 246.2C680.2 246.2 700.6 246.4 700.6 246.5Z" fill="#1C044E"/>
<path d="M633 275.2C638.302 275.2 642.6 275.066 642.6 274.9C642.6 274.734 638.302 274.6 633 274.6C627.698 274.6 623.4 274.734 623.4 274.9C623.4 275.066 627.698 275.2 633 275.2Z" fill="#7134EE"/>
<path d="M627.2 257.8C629.685 257.8 631.7 257.666 631.7 257.5C631.7 257.334 629.685 257.2 627.2 257.2C624.715 257.2 622.7 257.334 622.7 257.5C622.7 257.666 624.715 257.8 627.2 257.8Z" fill="#7134EE"/>
<path d="M551.4 462.9L571.5 443L535.6 381.5C531.9 377.2 527.1 373.9 521.8 371.9L509.2 367.1L477.8 361.3L455.5 370.1C449.9 372.3 446.4 378.1 447.1 384.1L452.9 433.3L456.3 497.3L537.4 483.2L529.2 459.5L529.5 422.6L551.4 462.9Z" fill="#FEC063"/>
<path d="M477 361.5C477 361.5 474 378.5 489.582 380.5C507.463 382.795 507.582 367 507.582 367" stroke="#4709C4"/>
<path d="M530.1 458C530.3 458 530.3 445.2 530.2 429.4C530.1 413.6 529.8 400.8 529.6 400.8C529.4 400.8 529.4 413.6 529.5 429.4C529.6 445.2 529.9 458 530.1 458Z" fill="#1C044E"/>
<path d="M527.1 467.4L478.1 447.7C474.1 446.1 471.4 442.4 471.1 438.2L467.5 391.2C467.5 391.2 467.9 371.2 455.4 370.2L448.3 373C439.1 377.9 436.8 391.2 438.1 401.6C439.9 416.3 440.6 437 442.6 449.7C444.2 460.1 450.5 468.3 460.4 471.9L520.8 485L527.1 467.4Z" fill="#FEC063"/>
<path d="M468.2 398.3C468.2 398.3 468.3 398.7 468.4 399.4C468.5 400.2 468.6 401.2 468.7 402.5C469 405.3 469.3 409.1 469.7 413.9C470.1 418.7 470.6 424.5 471.2 430.8C471.3 432.4 471.5 434 471.6 435.7C471.7 437.4 471.8 439.1 472.2 440.7C472.6 442.4 473.4 443.9 474.6 445.1C475.9 446.3 477.5 447.2 479.1 447.9C492.6 453.7 505.1 458.6 514.1 462C518.6 463.7 522.2 465 524.8 466C526 466.5 527 466.8 527.7 467.1C528.4 467.4 528.7 467.5 528.7 467.5C528.7 467.5 528.3 467.4 527.7 467.2C527 467 526 466.6 524.7 466.2C522.1 465.3 518.4 464.1 513.9 462.4C504.8 459.1 492.3 454.4 478.8 448.5C477.1 447.7 475.5 446.8 474.1 445.6C472.7 444.3 471.9 442.6 471.5 440.9C471.1 439.2 471 437.4 470.9 435.8C470.8 434.1 470.6 432.5 470.5 430.9C470 424.5 469.6 418.8 469.2 414C468.9 409.2 468.6 405.3 468.4 402.6C468.3 401.3 468.3 400.3 468.2 399.5C468.2 398.6 468.2 398.3 468.2 398.3Z" fill="#1C044E"/>
<path d="M440.1 423.8C440.1 423.8 440.2 424 440.2 424.4C440.2 424.9 440.3 425.5 440.4 426.2C440.5 427.9 440.7 430.1 441 432.9C441.3 435.7 441.6 439.1 442.1 442.8C442.6 446.5 443.2 450.6 444.3 454.7C444.8 456.8 445.6 458.7 446.7 460.4C447.8 462.1 449.1 463.6 450.4 464.9C453 467.6 455.8 469.5 458.2 470.8C463.2 473.4 466.9 473.4 466.8 473.6C466.8 473.6 466.6 473.6 466.2 473.6C465.8 473.6 465.2 473.5 464.4 473.4C462.8 473.1 460.6 472.5 458 471.2C455.4 469.9 452.6 468 449.9 465.3C448.6 464 447.3 462.4 446.1 460.7C444.9 459 444.1 456.9 443.6 454.8C442.5 450.6 441.9 446.5 441.4 442.8C440.9 439.1 440.6 435.7 440.4 432.9C440.2 430.1 440.1 427.8 440 426.2C440 425.5 440 424.9 440 424.4C440.1 424 440.1 423.8 440.1 423.8Z" fill="#1C044E"/>
<path d="M461.1 456.7C461 456.7 461.2 455.6 462 454.1C462.7 452.6 464.1 450.6 466.1 448.8C468.1 447.1 470.3 446 471.9 445.6C473.5 445.1 474.6 445.1 474.6 445.1C474.6 445.2 473.6 445.4 472 446C470.4 446.6 468.4 447.7 466.4 449.3C464.5 451 463.1 452.8 462.3 454.3C461.6 455.8 461.2 456.7 461.1 456.7Z" fill="#1C044E"/>
<g opacity="0.3">
<g opacity="0.3">
<g opacity="0.3">
<path opacity="0.3" d="M513 461.8C507.8 458.8 502.6 456.6 497.1 454.1C491.6 451.6 486.3 448.4 482.7 443.6C475.9 434.5 476.7 421.3 469.8 412.3C470.3 418.4 470.7 424.4 471.2 430.5C471.6 436 470.8 441.5 474.3 445.3C477.3 448.5 483.2 450.9 487.3 452.3C495.7 454.9 504.7 459 513 461.8Z" fill="black"/>
</g>
</g>
</g>
<path opacity="0.3" d="M529.6 404.3L533.9 430.5L529.9 423.1L529.6 404.3Z" fill="black"/>
<path d="M466.7 388.2C466.7 388.2 466.3 388.3 465.6 388.3C464.8 388.3 463.7 388.3 462.5 388.4C459.9 388.5 456.3 388.6 452.3 388.9C448.3 389.2 444.7 389.6 442.2 389.9C441 390 440 390.2 439.1 390.3C438.4 390.4 438 390.4 438 390.4C438 390.4 438.4 390.3 439.1 390.1C439.8 390 440.9 389.8 442.2 389.6C444.8 389.2 448.4 388.8 452.4 388.5C456.4 388.2 460 388.1 462.6 388.2C463.9 388.2 465 388.2 465.7 388.3C466.3 388.1 466.7 388.2 466.7 388.2Z" fill="#4709C4"/>
<path d="M453.824 414.697C461.75 414.041 468.164 413.376 468.151 413.211C468.137 413.046 461.701 413.443 453.775 414.099C445.849 414.754 439.435 415.419 439.448 415.584C439.462 415.749 445.898 415.352 453.824 414.697Z" fill="#4709C4"/>
<path d="M470.5 439.5C470.5 439.5 470.2 439.7 469.5 440.1C468.8 440.4 467.8 440.9 466.6 441.4C464.1 442.5 460.6 443.7 456.6 444.6C452.6 445.5 448.9 445.9 446.2 446C444.9 446.1 443.8 446.1 443 446C442.2 446 441.8 445.9 441.8 445.9C441.8 445.9 442.2 445.8 443 445.8C443.7 445.8 444.8 445.7 446.2 445.6C448.9 445.4 452.5 445 456.5 444.1C460.5 443.2 464 442 466.5 441.1C467.8 440.6 468.8 440.2 469.4 439.9C470.1 439.6 470.5 439.5 470.5 439.5Z" fill="#4709C4"/>
<path d="M487.9 453C488 453.1 485.3 454.3 483 456.9C480.7 459.5 479.8 462.2 479.6 462.1C479.5 462.1 479.7 461.4 480.1 460.3C480.6 459.2 481.4 457.8 482.6 456.5C483.8 455.2 485.1 454.2 486.1 453.7C487.2 453.2 487.9 453 487.9 453Z" fill="#4709C4"/>
<path d="M505.7 470.4C505.6 470.4 506.1 467.9 507.6 465.2C509.1 462.5 510.8 460.7 510.9 460.8C511 460.9 509.5 462.8 508 465.5C506.6 468.1 505.8 470.4 505.7 470.4Z" fill="#4709C4"/>
<path d="M470.727 374.988C474.585 374.291 477.689 373.593 477.66 373.43C477.631 373.267 474.479 373.7 470.62 374.398C466.762 375.095 463.658 375.793 463.687 375.956C463.717 376.119 466.869 375.686 470.727 374.988Z" fill="#4709C4"/>
<path d="M515.033 374.817C520.298 375.442 524.582 375.815 524.601 375.651C524.621 375.486 520.368 374.846 515.104 374.221C509.839 373.596 505.555 373.222 505.535 373.387C505.516 373.551 509.768 374.191 515.033 374.817Z" fill="#4709C4"/>
<path d="M528.7 397.4C528.7 397.4 528.5 397.4 528.1 397.4C527.6 397.4 527.1 397.4 526.3 397.4C524.7 397.4 522.5 397.4 519.8 397.4C514.3 397.4 506.8 397.4 498.5 397.7C490.2 397.9 482.6 398.3 477.2 398.5C474.5 398.6 472.3 398.8 470.7 398.8C470 398.8 469.4 398.9 468.9 398.9C468.5 398.9 468.3 398.9 468.3 398.9C468.3 398.9 468.5 398.8 468.9 398.8C469.4 398.8 469.9 398.7 470.7 398.6C472.2 398.5 474.4 398.3 477.2 398.1C482.7 397.7 490.2 397.3 498.5 397.1C506.8 396.9 514.4 396.9 519.8 397C522.5 397 524.7 397.1 526.3 397.2C527 397.2 527.6 397.3 528.1 397.3C528.5 397.4 528.7 397.4 528.7 397.4Z" fill="#4709C4"/>
<path d="M529.2 425.1C529.2 425.2 516.3 426.2 500.5 427.3C484.6 428.3 471.8 429.1 471.7 428.9C471.7 428.8 484.5 427.8 500.4 426.7C516.3 425.7 529.2 424.9 529.2 425.1Z" fill="#4709C4"/>
<path d="M527.9 449.4C527.9 449.4 527.5 449.6 526.8 449.9C526.1 450.2 525.1 450.5 523.8 450.9C521.2 451.7 517.6 452.8 513.6 453.8C509.6 454.8 505.9 455.5 503.2 455.9C501.9 456.1 500.8 456.3 500 456.3C499.2 456.4 498.8 456.4 498.8 456.4C498.8 456.4 499.2 456.3 499.9 456.1C500.7 455.9 501.8 455.7 503 455.5C505.6 455 509.3 454.2 513.3 453.3C517.3 452.3 520.9 451.3 523.5 450.6C524.7 450.2 525.7 450 526.6 449.7C527.5 449.5 527.9 449.4 527.9 449.4Z" fill="#4709C4"/>
<path d="M539.085 408.028C544.272 406.687 548.443 405.47 548.402 405.31C548.36 405.149 544.122 406.106 538.935 407.447C533.748 408.788 529.577 410.005 529.619 410.166C529.66 410.326 533.899 409.369 539.085 408.028Z" fill="#4709C4"/>
<path d="M534.465 387.71C536.802 387.289 538.673 386.816 538.644 386.653C538.614 386.49 536.696 386.699 534.359 387.119C532.021 387.54 530.15 388.013 530.18 388.176C530.209 388.339 532.128 388.13 534.465 387.71Z" fill="#4709C4"/>
<path d="M468.4 392.4C468.3 392.4 468.1 390.7 467.2 388.2C466.3 385.7 464.5 382.4 461.5 379.6C458.5 376.9 455 375.4 452.4 374.8C449.8 374.2 448.1 374.2 448.1 374.1C448.1 374.1 448.5 374 449.3 374.1C450.1 374.1 451.2 374.2 452.5 374.5C455.1 375 458.8 376.5 461.9 379.3C465 382.1 466.8 385.5 467.6 388.1C468 389.4 468.2 390.5 468.3 391.2C468.4 392 468.4 392.4 468.4 392.4Z" fill="#1C044E"/>
<path d="M528.481 388.18C527.67 383.108 526.879 379.018 526.716 379.044C526.552 379.07 527.077 383.203 527.889 388.274C528.7 393.346 529.491 397.436 529.655 397.41C529.818 397.384 529.293 393.251 528.481 388.18Z" fill="#1C044E"/>
<path d="M581.4 526.5C581.4 526.5 619.1 536.9 620.6 537.5C622.9 538.3 622.5 546.6 619 546.5C617.3 546.4 590.1 547.5 586.6 547.3C583.2 547.1 572.8 543 572.8 543L581.4 526.5Z" fill="#FEC063"/>
<path d="M597.1 540.8C597.3 540.8 597.5 538.8 598.8 536.8C600 534.7 601.6 533.5 601.5 533.3C601.4 533.2 599.6 534.2 598.3 536.5C596.9 538.7 597 540.8 597.1 540.8Z" fill="#1C044E"/>
<path d="M593.2 539C593.4 539 593.8 537.3 594.8 535.3C595.8 533.3 597 532 596.9 531.8C596.8 531.7 595.3 532.9 594.3 535C593.1 537.1 593 539 593.2 539Z" fill="#1C044E"/>
<path d="M589.5 538.1C589.7 538.1 589.5 536.2 590.4 534.1C591.2 532 592.6 530.7 592.5 530.6C592.4 530.5 590.7 531.6 589.9 533.9C588.9 536.1 589.3 538.1 589.5 538.1Z" fill="#1C044E"/>
<path d="M590.2 533.2C590.3 533.2 590.6 532.2 590.6 530.4C590.6 529.5 590.5 528.5 590.2 527.3C590.1 526.7 589.9 526.1 589.6 525.6C589.5 525.3 589.3 525 589 524.7C588.6 524.4 588 524.4 587.7 524.8C587.4 525.1 587.2 525.5 587.2 525.9C587.2 526.2 587.1 526.6 587.2 526.9C587.2 527.5 587.3 528.2 587.4 528.7C587.7 529.9 588.1 530.8 588.6 531.6C589.5 533.1 590.2 533.9 590.3 533.9C590.4 533.8 589.8 533 589 531.4C588.6 530.6 588.2 529.7 588 528.6C587.9 528.1 587.8 527.5 587.8 526.9C587.8 526.3 587.8 525.6 588.1 525.3C588.3 525.2 588.4 525.1 588.6 525.3C588.8 525.4 588.9 525.7 589 526C589.2 526.6 589.4 527.1 589.6 527.7C589.9 528.8 590 529.8 590.1 530.6C590.2 532.1 590.1 533.2 590.2 533.2Z" fill="#1C044E"/>
<path d="M590.1 532.8C590.1 532.7 589.2 532.4 587.7 532.4C586.9 532.4 586 532.5 585 532.7C584.5 532.8 584 533 583.5 533.3C583 533.6 582.4 534.3 582.6 535C582.8 535.7 583.4 536.2 584 536.3C584.6 536.5 585.2 536.4 585.7 536.3C586.7 536.1 587.5 535.6 588.1 535.1C589.3 534.2 589.9 533.4 589.9 533.4C589.8 533.3 589.1 533.9 587.9 534.8C587.3 535.2 586.5 535.6 585.6 535.8C585.1 535.9 584.6 535.9 584.2 535.8C583.8 535.7 583.4 535.3 583.3 534.9C583.2 534.5 583.4 534.1 583.9 533.8C584.3 533.5 584.8 533.4 585.3 533.3C586.2 533 587.1 532.9 587.8 532.9C589.2 532.8 590.1 532.9 590.1 532.8Z" fill="#1C044E"/>
<path d="M602.9 541.2C603.1 541.2 602.9 539.6 603.6 537.8C604.3 536 605.6 535 605.4 534.9C605.3 534.7 603.8 535.6 603 537.6C602.2 539.6 602.8 541.3 602.9 541.2Z" fill="#1C044E"/>
<path d="M576.6 543C576.6 543 577.1 543.3 578.1 543.7C579.1 544.1 580.5 544.6 582.3 545C585.9 545.9 591 546.4 596.7 546.4C602.3 546.3 607.4 546.1 611.1 545.9C612.8 545.8 614.3 545.7 615.5 545.7C616.5 545.6 617.1 545.6 617.1 545.5C617.1 545.5 616.5 545.4 615.5 545.4C614.3 545.4 612.9 545.4 611.1 545.4C607.3 545.5 602.3 545.6 596.7 545.7C591.1 545.8 586 545.3 582.4 544.5C578.8 543.8 576.7 542.9 576.6 543Z" fill="#1C044E"/>
<path d="M575.5 543.8C575.6 543.9 576.6 543.3 578.3 542.5C580 541.8 582.6 540.9 585.4 541.3C588.2 541.7 590.3 543.6 591.6 545C592.9 546.4 593.7 547.3 593.8 547.2C593.9 547.2 593.2 546.2 592 544.7C591.4 544 590.6 543.1 589.5 542.4C588.5 541.6 587.1 541 585.6 540.7C582.6 540.2 579.9 541.2 578.2 542.1C576.4 543 575.5 543.8 575.5 543.8Z" fill="#1C044E"/>
<path d="M536.8 517.7C536.8 517.7 501.1 541 499.9 542C498 543.5 500.2 550.4 503.5 549.2C505.1 548.6 535 540.3 538.2 539.1C541.4 537.8 550.1 530.8 550.1 530.8L536.8 517.7Z" fill="#FEC063"/>
<path d="M526.2 536.2C526.4 536.2 525.7 534.1 523.8 532.4C521.9 530.7 519.8 530.2 519.8 530.4C519.7 530.6 521.6 531.3 523.4 532.9C525.2 534.4 526.1 536.3 526.2 536.2Z" fill="#1C044E"/>
<path d="M529.4 533.3C529.6 533.2 528.9 531.4 527.2 529.8C525.6 528.1 523.8 527.4 523.7 527.6C523.6 527.8 525.2 528.7 526.7 530.3C528.4 531.8 529.3 533.4 529.4 533.3Z" fill="#1C044E"/>
<path d="M532.6 531.2C532.8 531.2 532.6 529.2 531 527.3C529.5 525.4 527.5 524.8 527.5 525C527.4 525.2 529.1 526 530.5 527.7C532 529.4 532.5 531.3 532.6 531.2Z" fill="#1C044E"/>
<path d="M530.5 526.8C530.6 526.8 530.1 525.8 529.7 524.1C529.5 523.3 529.3 522.3 529.3 521.1C529.3 520.5 529.3 519.9 529.3 519.3C529.3 519 529.4 518.7 529.5 518.5C529.6 518.3 529.8 518.3 530 518.4C530.4 518.6 530.6 519.3 530.8 519.8C531 520.4 531.1 520.9 531.1 521.5C531.2 522.6 531.1 523.6 531 524.5C530.7 526.2 530.4 527.2 530.5 527.3C530.6 527.3 531.1 526.3 531.4 524.6C531.6 523.7 531.7 522.7 531.6 521.5C531.6 520.9 531.4 520.3 531.3 519.7C531.2 519.4 531.1 519.1 531 518.8C530.9 518.5 530.6 518.1 530.2 517.9C529.8 517.7 529.2 517.8 528.9 518.2C528.7 518.6 528.6 518.9 528.6 519.3C528.6 519.9 528.6 520.6 528.6 521.1C528.7 522.3 528.9 523.3 529.2 524.1C529.8 525.9 530.5 526.8 530.5 526.8Z" fill="#1C044E"/>
<path d="M530.5 526.4C530.5 526.5 531.4 526.1 532.8 525.7C533.5 525.5 534.4 525.4 535.4 525.4C535.9 525.4 536.4 525.4 536.9 525.5C537.4 525.6 537.7 525.9 537.8 526.3C537.8 526.7 537.6 527.2 537.2 527.4C536.8 527.7 536.3 527.8 535.9 527.8C535 527.9 534.1 527.7 533.4 527.5C532 527.1 531.1 526.7 531.1 526.8C531.1 526.9 531.9 527.4 533.3 527.9C534 528.2 534.9 528.4 536 528.3C536.5 528.3 537.1 528.1 537.6 527.8C538.1 527.5 538.5 526.8 538.5 526.1C538.5 525.3 537.7 524.8 537.2 524.7C536.6 524.6 536.1 524.6 535.6 524.6C534.6 524.7 533.7 524.9 533 525.1C531.2 525.8 530.4 526.3 530.5 526.4Z" fill="#1C044E"/>
<path d="M508 547.9C508 548 508.6 547.5 508.9 546.5C509.2 545.5 509 544 508.2 542.6C507.8 541.9 507.4 541.3 507 540.8C506.6 540.3 506.2 539.8 505.8 539.5C505.4 539.2 505 539 504.7 539C504.4 539 504.2 539.1 504.3 539.1C504.3 539.2 504.9 539.2 505.6 539.8C505.9 540.1 506.3 540.6 506.6 541.1C507 541.6 507.4 542.2 507.7 542.8C508.4 544.1 508.6 545.4 508.5 546.3C508.3 547.3 508 547.8 508 547.9Z" fill="#1C044E"/>
<path d="M520.8 538.3C521 538.3 520.9 536.5 519.5 534.9C518.1 533.3 516.4 532.9 516.4 533.1C516.3 533.3 517.8 533.9 519.1 535.3C520.3 536.8 520.7 538.3 520.8 538.3Z" fill="#1C044E"/>
<path d="M546.4 532C546.4 532 545.8 532.4 544.8 533.1C543.8 533.8 542.3 534.8 540.4 535.8C538.5 536.8 536.1 537.9 533.4 538.9C530.7 539.9 527.7 540.9 524.5 541.8C518.1 543.6 512.3 545.3 508.1 546.6C506.1 547.2 504.4 547.7 503.1 548.1C501.9 548.5 501.3 548.7 501.3 548.7C501.3 548.7 502 548.6 503.2 548.3C504.5 548 506.2 547.5 508.2 547C512.4 545.8 518.2 544.2 524.7 542.4C527.9 541.5 531 540.5 533.7 539.5C536.4 538.5 538.8 537.3 540.7 536.2C542.6 535.1 544.1 534.1 545 533.3C546 532.5 546.4 532 546.4 532Z" fill="#1C044E"/>
<path d="M547.7 532.5C547.7 532.4 546.6 532 544.7 531.7C542.8 531.4 540 531.2 537.2 532.6C535.8 533.3 534.8 534.3 534 535.4C533.2 536.4 532.7 537.5 532.3 538.4C531.5 540.2 531.2 541.3 531.3 541.4C531.4 541.4 531.9 540.3 532.7 538.6C533.5 536.9 534.9 534.5 537.5 533.2C540.1 531.9 542.8 532 544.7 532.2C546.6 532.3 547.7 532.6 547.7 532.5Z" fill="#1C044E"/>
<path d="M610.9 459.3C610.9 459.3 621.6 463.1 621.6 475.1C621.7 498.1 575.2 523.4 575.2 523.4L513.3 482.4L509.4 480.8C509.5 480.9 593 449.5 610.9 459.3Z" fill="#1C044E"/>
<path d="M544.7 503.1C544.7 503.1 545.3 502.7 546.3 502C547.3 501.3 548.8 500.2 550.5 498.8C554 496.1 558.9 492.2 564.1 487.7C569.3 483.2 573.9 479.1 577.1 476C578.7 474.5 580 473.2 580.9 472.3C581.8 471.4 582.3 470.9 582.2 470.9C582.2 470.9 581.6 471.3 580.7 472.1C579.7 473 578.4 474.2 576.8 475.7C573.5 478.7 568.9 482.8 563.7 487.3C558.5 491.7 553.8 495.7 550.3 498.5C548.6 499.9 547.2 501 546.2 501.9C545.2 502.6 544.7 503.1 544.7 503.1Z" fill="#4709C4"/>
<path d="M593.5 467.9C593.5 467.7 590.8 467.5 587.5 468.4C584.3 469.3 582.1 471.1 582.2 471.2C582.3 471.4 584.6 469.9 587.7 469C590.8 468.1 593.5 468.1 593.5 467.9Z" fill="#4709C4"/>
<path d="M588.1 464.3C588 464.2 586.1 465 584.4 467.1C582.8 469.1 582.3 471.2 582.5 471.3C582.7 471.4 583.4 469.4 584.9 467.5C586.5 465.5 588.2 464.5 588.1 464.3Z" fill="#4709C4"/>
<path d="M614.3 537C614.3 536.9 613.6 536.8 612.7 537.5C611.9 538.2 611.1 539.5 610.9 541.1C610.7 542.7 611 544.1 611.5 545.1C611.9 546 612.4 546.5 612.5 546.4C612.6 546.3 612.2 545.8 611.9 544.9C611.6 544 611.3 542.6 611.5 541.2C611.7 539.8 612.3 538.5 613 537.9C613.7 537.2 614.4 537.1 614.3 537Z" fill="#1C044E"/>
<path d="M606.5 426.7L588.9 474.1C587.9 476.8 585.3 478.6 582.4 478.6L485.5 477.3V469.9L521.5 471.2L536.8 423.9C537.3 422.3 538.8 421.2 540.5 421.2L603 421.4C605.7 421.4 607.5 424.2 606.5 426.7Z" fill="#E0E0E0"/>
<path d="M606.5 426.7V426.6C606.5 426.5 606.6 426.4 606.6 426.2C606.7 425.8 606.8 425.2 606.6 424.4C606.4 423.6 605.9 422.7 604.9 422.1C604.4 421.8 603.8 421.6 603.1 421.5C602.4 421.5 601.7 421.5 600.9 421.5C594.8 421.5 585.9 421.5 574.8 421.5C569.2 421.5 563.1 421.5 556.5 421.5C553.2 421.5 549.8 421.5 546.2 421.5C544.4 421.5 542.6 421.5 540.8 421.5C539.9 421.5 539 421.6 538.2 422.1C537.4 422.6 536.9 423.3 536.6 424.2C532 438.5 526.9 454.4 521.4 471.5V471.6H521.3C509.8 471.2 497.8 470.7 485.3 470.3L485.5 470.1C485.5 470.5 485.5 471 485.5 471.4C485.5 473.5 485.5 475.5 485.5 477.4L485.3 477.2C507 477.5 527.6 477.8 546.2 478C555.5 478.1 564.4 478.2 572.7 478.4C574.8 478.4 576.8 478.5 578.8 478.5C579.8 478.5 580.8 478.5 581.8 478.5C582.8 478.5 583.7 478.4 584.6 478.1C586.4 477.4 587.8 476 588.5 474.4C589.1 472.7 589.8 471 590.4 469.3C595.3 456.1 599.3 445.5 602 438.1C603.4 434.4 604.4 431.6 605.2 429.7C606.1 427.7 606.5 426.7 606.5 426.7C606.5 426.7 606.1 427.7 605.4 429.7C604.7 431.6 603.6 434.5 602.3 438.2C599.6 445.6 595.6 456.2 590.8 469.4C590.2 471 589.6 472.7 588.9 474.5C588.2 476.2 586.7 477.7 584.9 478.4C584 478.7 583 478.9 582 478.8C581 478.8 580 478.8 579 478.8C577 478.8 575 478.7 572.9 478.7C564.6 478.6 555.7 478.5 546.4 478.4C527.7 478.2 507.1 477.9 485.5 477.6H485.3V477.4C485.3 475.5 485.3 473.4 485.3 471.4C485.3 470.9 485.3 470.5 485.3 470.1V469.9H485.5C497.9 470.4 510 470.8 521.5 471.2L521.3 471.3C526.8 454.3 531.9 438.4 536.6 424.1C536.9 423.2 537.5 422.4 538.3 421.9C539.1 421.4 540.1 421.2 541 421.3C542.8 421.3 544.6 421.3 546.4 421.3C549.9 421.3 553.4 421.3 556.7 421.3C563.3 421.3 569.4 421.3 575 421.4C586.1 421.5 595 421.5 601.1 421.5C601.9 421.5 602.6 421.5 603.3 421.5C604 421.5 604.6 421.8 605.1 422.1C606.1 422.7 606.6 423.7 606.8 424.4C607 425.2 606.9 425.8 606.8 426.2C606.6 426.5 606.5 426.7 606.5 426.7Z" fill="#1C044E"/>
<path d="M563.5 444.6C564.8 443.7 567.1 444.1 568.2 445.1C569.3 446.1 569.7 447.9 569.1 449.3C568.5 450.7 567.1 451.7 565.6 451.8C564 451.9 562.3 450.9 561.9 449.3C561.4 447.8 561.9 445.4 563.5 444.6Z" fill="white"/>
<path d="M585.7 526C585.7 526 498.4 470.1 494.5 467.9C491.2 466 482.4 460.6 473.8 463C465.1 465.4 457.4 473.1 453.5 484.5C451.3 491 450.2 502 449.7 510.3C449.1 520.2 452.2 530.1 458.7 537.6C461.6 541 465.3 544 469.6 545.3C470.5 545.6 471.5 545.8 472.4 546C488.9 549.6 505.9 542.2 515.2 528L517.2 524.9C517.2 524.9 574.4 545.9 575.3 545.6L585.7 526Z" fill="#1C044E"/>
<path d="M499 471C499 471 498.9 471 498.8 470.9C498.6 470.8 498.4 470.7 498.2 470.5C497.7 470.1 496.9 469.6 495.8 468.9C493.7 467.6 490.7 465.7 486.5 464.2C484.4 463.5 482.1 462.9 479.5 462.7C476.9 462.6 474.2 463 471.5 464C468.8 465 466.2 466.6 463.8 468.7C462.6 469.7 461.4 470.9 460.4 472.1C459.3 473.3 458.4 474.7 457.6 476.1C455.9 479 454.7 482.1 453.8 485.1C453 488.1 452.3 491.2 451.7 494C450.5 499.7 449.8 504.9 449.7 509.3C449.6 513.7 450.1 517.3 450.5 519.7C450.7 520.9 450.9 521.9 451 522.5C451.1 522.8 451.1 523 451.1 523.2C451.1 523.4 451.1 523.4 451.1 523.5C451.1 523.5 451.1 523.4 451 523.3C450.9 523.1 450.9 522.9 450.8 522.6C450.6 522 450.4 521 450.2 519.8C449.7 517.4 449.2 513.8 449.2 509.4C449.2 505 449.9 499.7 451.1 494C451.7 491.1 452.4 488.2 453.2 485.1C454.1 482 455.3 478.9 457 476C457.8 474.5 458.8 473.1 459.9 471.9C461 470.7 462.2 469.5 463.4 468.5C465.8 466.4 468.5 464.8 471.3 463.8C474.1 462.8 476.9 462.4 479.5 462.5C482.1 462.7 484.5 463.3 486.6 464.1C490.8 465.7 493.8 467.6 495.9 469C496.9 469.7 497.7 470.3 498.2 470.7C498.4 470.9 498.6 471 498.8 471.2C499 470.9 499 471 499 471Z" fill="#4709C4"/>
<path d="M477.5 510.2C477.5 510.2 477.7 510.3 478 510.4C478.3 510.5 478.8 510.7 479.4 511C480.7 511.5 482.6 512.2 484.9 513.1C489.8 514.9 496.8 517.6 505.5 520.9C514.3 524.2 524.7 528 536.5 532.3C548.3 536.6 561.3 541.3 575.2 546L575.5 546.1L575.6 545.9C577.8 541.7 580.1 537.3 582.4 532.9C583.6 530.6 584.8 528.4 585.9 526.2L586 525.9L585.8 525.7C559.5 509 536.1 494.1 519.1 483.4C510.6 478.1 503.8 473.8 499.1 470.8C496.8 469.3 494.9 468.2 493.7 467.4C493.1 467 492.6 466.7 492.3 466.5C492 466.3 491.8 466.2 491.8 466.2C491.8 466.2 492 466.3 492.3 466.5C492.6 466.7 493.1 467 493.7 467.4C495 468.2 496.8 469.4 499.1 470.9C503.8 473.9 510.6 478.3 519 483.7C535.9 494.5 559.4 509.5 585.6 526.2L585.5 525.8C584.4 527.9 583.2 530.2 582 532.5C579.7 537 577.4 541.4 575.2 545.5L575.6 545.3C561.7 540.6 548.6 535.9 536.9 531.7C525.1 527.4 514.6 523.6 505.9 520.4C497.2 517.2 490.1 514.6 485.2 512.8C482.8 511.9 480.9 511.2 479.6 510.8C479 510.6 478.5 510.4 478.1 510.3C477.7 510.3 477.5 510.2 477.5 510.2Z" fill="#4709C4"/>
<path d="M482 324.6C480.5 321.6 478.9 318.6 478.1 315.3C477.3 312 477.2 308.5 478.6 305.4C479.4 303.6 480.7 302 481.3 300.2C482.2 297.6 481.8 294.6 483.4 292.4C485.9 289 491.2 289.8 495 288C498 286.6 500.1 283.6 503.2 282.6C505.9 281.7 508.9 282.6 511.6 283.7C514.2 284.8 516.8 286.3 519.7 286.6C521.7 286.9 523.8 286.6 525.8 286.6C527.9 286.6 530 287.1 531.5 288.6C532.9 290.1 533.2 292.7 531.7 294.1C535.3 293.5 538.7 297.1 538.6 300.7C538.6 304.3 535.8 307.5 532.5 309.1C529.2 310.6 525.4 310.7 521.8 310.4C511.5 309.6 501.2 305.7 494.2 298.1" fill="#1C044E"/>
<path d="M484.3 311.8L477.3 362.6C476.1 371.2 482.4 379.1 491.1 379.9C499.2 380.6 506.5 374.8 507.6 366.7C508.1 362.9 508.6 359.7 508.6 359.3C508.6 359.3 521.7 359.9 524.4 347.2C525.7 341.1 527.4 328.2 528.7 316.6C530.2 304.1 521.8 292.6 509.4 290.1L508.2 289.9C494.8 288 485.8 298.4 484.3 311.8Z" fill="#FFBE9D"/>
<path d="M508.6 359.2C508.6 359.2 500.4 358.2 493 351.2C493 351.2 495.1 361.1 508 362.5L508.6 359.2Z" fill="#EB996E"/>
<path d="M523 327.4C522.8 328.4 521.9 329 520.9 328.9C519.9 328.8 519.2 327.9 519.4 326.9C519.6 325.9 520.5 325.3 521.5 325.4C522.5 325.6 523.2 326.5 523 327.4Z" fill="#1C044E"/>
<path d="M524.7 322.3C524.4 322.5 523.3 321.2 521.3 320.8C519.4 320.4 517.7 321.1 517.6 320.8C517.5 320.7 517.8 320.3 518.5 320C519.2 319.7 520.3 319.4 521.6 319.7C522.8 319.9 523.8 320.6 524.2 321.2C524.7 321.8 524.9 322.2 524.7 322.3Z" fill="#1C044E"/>
<path d="M504.8 324.3C504.6 325.3 503.7 325.9 502.7 325.8C501.7 325.7 501 324.8 501.2 323.8C501.4 322.8 502.3 322.2 503.3 322.3C504.2 322.4 504.9 323.3 504.8 324.3Z" fill="#1C044E"/>
<path d="M505.4 318.9C505.1 319.1 504 317.8 502 317.4C500.1 317 498.4 317.7 498.3 317.4C498.2 317.3 498.5 316.9 499.2 316.6C499.9 316.3 501 316 502.3 316.3C503.5 316.6 504.4 317.2 504.9 317.8C505.5 318.3 505.6 318.8 505.4 318.9Z" fill="#1C044E"/>
<path d="M509.6 334.8C509.6 334.7 510.9 334.7 512.9 334.9C513.4 334.9 513.9 334.9 514.1 334.6C514.3 334.3 514.2 333.7 514.1 333.1C513.9 331.8 513.6 330.4 513.4 329C512.4 323.2 511.8 318.4 512.1 318.4C512.3 318.4 513.3 323 514.3 328.9C514.5 330.3 514.7 331.7 514.9 333C515 333.6 515.2 334.3 514.8 335C514.6 335.3 514.2 335.5 513.8 335.6C513.5 335.6 513.2 335.6 512.9 335.5C510.9 335.1 509.6 334.9 509.6 334.8Z" fill="#1C044E"/>
<path d="M503.6 335C503.9 335 503.5 337.2 505 339C506.5 340.9 508.8 341.1 508.8 341.4C508.8 341.5 508.2 341.7 507.3 341.5C506.4 341.3 505.1 340.8 504.1 339.6C503.2 338.5 502.9 337.1 503 336.2C503.1 335.4 503.5 334.9 503.6 335Z" fill="#1C044E"/>
<path d="M507.5 311.3C507.2 311.8 505.3 311.2 503 311C500.7 310.8 498.7 311.1 498.5 310.5C498.4 310.2 498.8 309.8 499.7 309.4C500.5 309 501.8 308.8 503.2 308.9C504.6 309 505.8 309.5 506.6 310C507.3 310.6 507.6 311.1 507.5 311.3Z" fill="#1C044E"/>
<path d="M525.1 316.5C524.7 316.9 523.4 316.1 521.8 315.8C520.2 315.4 518.8 315.5 518.5 315C518.4 314.7 518.7 314.3 519.4 314C520.1 313.7 521.1 313.6 522.2 313.8C523.3 314.1 524.2 314.7 524.7 315.2C525.2 315.8 525.3 316.3 525.1 316.5Z" fill="#1C044E"/>
<path d="M483.4 321.4C483.2 321.3 475.2 317.1 473.7 325.8C472.2 334.5 481.3 334.2 481.4 334C481.5 333.7 483.4 321.4 483.4 321.4Z" fill="#FFBE9D"/>
<path d="M479.3 330.2C479.3 330.2 479.1 330.3 478.9 330.4C478.6 330.5 478.2 330.5 477.8 330.2C476.9 329.7 476.4 328.1 476.6 326.5C476.7 325.7 477 325 477.4 324.4C477.8 323.8 478.3 323.4 478.7 323.4C479.2 323.4 479.5 323.7 479.5 324C479.6 324.3 479.5 324.4 479.5 324.5C479.5 324.5 479.7 324.4 479.7 324C479.7 323.8 479.6 323.6 479.4 323.4C479.2 323.2 478.9 323.1 478.6 323C477.9 322.9 477.2 323.5 476.8 324.1C476.3 324.7 476 325.6 475.9 326.5C475.7 328.3 476.3 330.1 477.5 330.6C478.1 330.9 478.6 330.8 478.9 330.6C479.2 330.4 479.3 330.2 479.3 330.2Z" fill="#EB996E"/>
<path d="M531.2 304.8C529.7 308 522 309.3 516.3 307.6C511.1 306 509.2 302.7 505.9 299.8C503.8 298 503.8 298 500.4 297.6C497.6 297.3 495.4 300.1 493.3 301.9C494.5 308.9 491.4 315.7 488.4 322.1C488.1 322.8 487.7 323.6 487 323.9C485.8 324.5 484.4 323.6 483.7 322.4C482.6 320.6 482.4 318.4 482.5 316.3C482.6 311.5 483.4 306.6 485.4 302.2C487.4 297.8 490.5 293.8 494.5 291.2C499.6 288 506 287 511.9 288.3C517.8 289.6 523.1 292.9 527.2 297.5C529 299.7 530.6 302.1 531.2 304.8Z" fill="#1C044E"/>
<path d="M513.4 326C513.5 326 513.4 325.2 513.8 324C514.1 322.7 515 320.9 516.9 319.5C518.7 318.1 521.7 317.3 524.6 318.4C526 318.9 527.4 319.9 528.4 321.2C529.4 322.5 530 324.2 530 326C530 327.8 529.4 329.5 528.4 330.8C527.4 332.1 526.1 333.1 524.6 333.6C521.7 334.7 518.7 333.9 516.9 332.5C515 331.1 514.1 329.3 513.8 328C513.5 326.7 513.5 326 513.4 326C513.4 326 513.4 326.2 513.4 326.5C513.4 326.9 513.4 327.4 513.6 328.1C513.9 329.4 514.7 331.4 516.7 332.9C518.6 334.4 521.8 335.4 525 334.2C526.6 333.7 528 332.6 529.1 331.2C530.2 329.8 530.8 327.9 530.8 326C530.8 324.1 530.2 322.2 529.1 320.8C528 319.3 526.6 318.3 525 317.8C521.8 316.7 518.6 317.6 516.7 319.1C514.7 320.6 513.9 322.6 513.6 323.9C513.5 324.6 513.4 325.1 513.4 325.5C513.4 325.8 513.4 326 513.4 326Z" fill="#1C044E"/>
<path d="M492.7 322.3C492.8 322.3 492.7 321.5 493.1 320.3C493.4 319 494.3 317.2 496.2 315.8C498 314.4 501 313.6 503.9 314.7C505.3 315.2 506.7 316.2 507.7 317.5C508.7 318.8 509.3 320.5 509.3 322.3C509.3 324.1 508.7 325.8 507.7 327.1C506.7 328.4 505.4 329.4 503.9 329.9C501 331 498 330.2 496.2 328.8C494.3 327.4 493.4 325.6 493.1 324.3C492.7 323.1 492.7 322.3 492.7 322.3C492.7 322.3 492.7 322.5 492.7 322.8C492.7 323.2 492.7 323.7 492.9 324.4C493.2 325.7 494 327.7 496 329.2C497.9 330.7 501.1 331.7 504.3 330.5C505.9 330 507.3 328.9 508.4 327.5C509.5 326.1 510.1 324.2 510.1 322.3C510.1 320.4 509.5 318.5 508.4 317.1C507.3 315.6 505.9 314.6 504.3 314.1C501.1 313 497.9 313.9 496 315.4C494 316.9 493.2 318.9 492.9 320.2C492.8 320.9 492.7 321.4 492.7 321.8C492.6 322.2 492.6 322.3 492.7 322.3Z" fill="#1C044E"/>
<path d="M509.8 322.6C509.9 322.8 511 322.3 512.3 322.7C513.6 323.1 514.2 324.1 514.4 324C514.5 324 514.4 323.6 514.1 323.2C513.8 322.8 513.2 322.2 512.4 322C511.6 321.8 510.8 321.9 510.4 322.1C509.9 322.3 509.7 322.6 509.8 322.6Z" fill="#1C044E"/>
<path d="M487.177 319.634C483.753 319.683 480.98 319.901 480.983 320.122C480.986 320.343 483.764 320.483 487.188 320.434C490.612 320.386 493.385 320.168 493.382 319.947C493.379 319.726 490.601 319.586 487.177 319.634Z" fill="#1C044E"/>
<path d="M535.3 296.5C535.3 296.5 535.3 296.8 535.2 297.3C535 297.8 534.6 298.5 533.9 299.2C533.2 299.8 532 300.3 530.8 300.5C529.5 300.7 528.1 300.5 526.6 300.3C523.7 299.9 521.1 299.3 519.2 298.8C518.3 298.6 517.5 298.3 517 298.2C516.8 298.1 516.6 298.1 516.4 298C516.3 298 516.2 297.9 516.2 297.9C516.2 297.9 516.3 297.9 516.4 297.9C516.6 297.9 516.8 298 517 298.1C517.6 298.3 518.4 298.4 519.2 298.7C521.1 299.2 523.7 299.7 526.6 300.1C528.1 300.3 529.5 300.5 530.7 300.3C532 300.2 533 299.7 533.8 299.1C534.5 298.5 535 297.8 535.1 297.3C535.3 296.8 535.3 296.5 535.3 296.5Z" fill="white"/>
<path d="M537.2 298.5C537.2 298.5 537.1 299.5 536.5 300.9C535.9 302.3 534.5 304.1 532.5 305.4C530.4 306.6 528.2 306.9 526.7 306.8C525.1 306.7 524.2 306.3 524.2 306.3C524.2 306.3 524.4 306.3 524.9 306.4C525.3 306.5 525.9 306.6 526.7 306.6C528.2 306.7 530.4 306.3 532.4 305.1C534.4 303.9 535.7 302.1 536.4 300.7C536.7 300 537 299.4 537.1 299C537.2 298.7 537.2 298.5 537.2 298.5Z" fill="white"/>
</svg>
