<svg width="217" height="36" viewBox="0 0 217 36" fill="none" xmlns="http://www.w3.org/2000/svg">
<path d="M2.2 6.975C2.6 9.9 3 10.575 3 13.5C3 15.3 0 16.875 0 16.875V19.125C0 19.125 3 20.7 3 22.5C3 25.425 2.6 26.1 2.2 29.025C1.6 33.75 3.8 36 5.8 36C7.8 36 10 36 10 36V31.5C10 31.5 6.4 31.95 6.4 29.25C6.4 27.225 6.8 27.225 7.2 22.725C7.4 20.7 6.2 19.125 5 18C6.2 16.875 7.4 15.525 7.2 13.5C6.6 9 6.4 9 6.4 6.975C6.4 4.275 10 4.5 10 4.5V0C10 0 8 0 5.8 0C3.6 0 1.6 2.25 2.2 6.975Z" fill="#0E0227"/>
<path d="M214.58 6.975C214.14 9.9 213.7 10.575 213.7 13.5C213.7 15.3 217 16.875 217 16.875V19.125C217 19.125 213.7 20.7 213.7 22.5C213.7 25.425 214.14 26.1 214.58 29.025C215.24 33.75 212.82 36 210.62 36C208.42 36 206 36 206 36V31.5C206 31.5 209.96 31.95 209.96 29.25C209.96 27.225 209.52 27.225 209.08 22.725C208.86 20.7 210.18 19.125 211.5 18C210.18 16.875 208.86 15.525 209.08 13.5C209.52 9 209.96 9 209.96 6.975C209.96 4.275 206 4.5 206 4.5V0C206 0 208.2 0 210.62 0C213.04 0 215.24 2.25 214.58 6.975Z" fill="#0E0227"/>
<path d="M13.928 24C13.56 24 13.24 23.864 12.968 23.592C12.712 23.32 12.584 23 12.584 22.632V12.888C12.584 12.52 12.712 12.2 12.968 11.928C13.24 11.656 13.56 11.52 13.928 11.52H15.104C15.472 11.52 15.784 11.656 16.04 11.928C16.312 12.2 16.448 12.52 16.448 12.888V13.896C16.448 13.912 16.456 13.92 16.472 13.92C16.504 13.92 16.52 13.912 16.52 13.896C17.512 12.568 18.896 11.792 20.672 11.568C21.04 11.52 21.352 11.632 21.608 11.904C21.88 12.176 22.016 12.504 22.016 12.888V13.08C22.016 13.448 21.88 13.768 21.608 14.04C21.352 14.312 21.032 14.464 20.648 14.496C19.352 14.64 18.344 15.088 17.624 15.84C16.92 16.576 16.568 17.536 16.568 18.72V22.632C16.568 23 16.432 23.32 16.16 23.592C15.904 23.864 15.592 24 15.224 24H13.928ZM31.4564 14.88C31.0724 14.288 30.4804 13.992 29.6804 13.992C28.8804 13.992 28.2804 14.288 27.8804 14.88C27.4964 15.472 27.3044 16.432 27.3044 17.76C27.3044 19.088 27.4964 20.048 27.8804 20.64C28.2804 21.232 28.8804 21.528 29.6804 21.528C30.4804 21.528 31.0724 21.232 31.4564 20.64C31.8564 20.048 32.0564 19.088 32.0564 17.76C32.0564 16.432 31.8564 15.472 31.4564 14.88ZM34.3124 22.536C33.2084 23.672 31.6644 24.24 29.6804 24.24C27.6964 24.24 26.1524 23.672 25.0484 22.536C23.9444 21.4 23.3924 19.808 23.3924 17.76C23.3924 15.712 23.9444 14.12 25.0484 12.984C26.1524 11.848 27.6964 11.28 29.6804 11.28C31.6644 11.28 33.2084 11.848 34.3124 12.984C35.4164 14.12 35.9684 15.712 35.9684 17.76C35.9684 19.808 35.4164 21.4 34.3124 22.536ZM41.0216 23.808L36.9656 12.792C36.8376 12.488 36.8696 12.2 37.0616 11.928C37.2536 11.656 37.5176 11.52 37.8536 11.52H39.3656C39.7496 11.52 40.1016 11.648 40.4216 11.904C40.7416 12.144 40.9496 12.456 41.0456 12.84L42.8696 20.304C42.8696 20.32 42.8776 20.328 42.8936 20.328C42.9096 20.328 42.9176 20.32 42.9176 20.304L45.1016 12.816C45.1976 12.432 45.4056 12.12 45.7256 11.88C46.0616 11.64 46.4376 11.52 46.8536 11.52H48.1736C48.4936 11.52 48.7496 11.656 48.9416 11.928C49.1336 12.2 49.1736 12.488 49.0616 12.792L43.3976 28.008C43.2536 28.392 43.0136 28.696 42.6776 28.92C42.3416 29.16 41.9736 29.28 41.5736 29.28H40.2536C39.9176 29.28 39.6616 29.144 39.4856 28.872C39.3096 28.616 39.2856 28.336 39.4136 28.032L41.0216 24.192C41.0376 24.128 41.0456 24.064 41.0456 24C41.0456 23.936 41.0376 23.872 41.0216 23.808ZM53.7123 14.952C53.3443 14.952 53.0243 14.824 52.7523 14.568C52.4803 14.296 52.3443 13.976 52.3443 13.608V11.76C52.3443 11.392 52.4803 11.072 52.7523 10.8C53.0243 10.528 53.3443 10.392 53.7123 10.392H55.5363C55.9043 10.392 56.2243 10.528 56.4963 10.8C56.7683 11.072 56.9043 11.392 56.9043 11.76V13.608C56.9043 13.976 56.7683 14.296 56.4963 14.568C56.2243 14.824 55.9043 14.952 55.5363 14.952H53.7123ZM53.7123 24C53.3443 24 53.0243 23.864 52.7523 23.592C52.4803 23.32 52.3443 23 52.3443 22.632V20.808C52.3443 20.44 52.4803 20.12 52.7523 19.848C53.0243 19.576 53.3443 19.44 53.7123 19.44H55.5363C55.9043 19.44 56.2243 19.576 56.4963 19.848C56.7683 20.12 56.9043 20.44 56.9043 20.808V22.632C56.9043 23 56.7683 23.32 56.4963 23.592C56.2243 23.864 55.9043 24 55.5363 24H53.7123Z" fill="#2B0676"/>
<path d="M74.3619 12.72C74.0259 12.72 73.7619 12.584 73.5699 12.312C73.3939 12.04 73.3699 11.752 73.4979 11.448L75.2979 6.792C75.4419 6.408 75.6819 6.104 76.0179 5.88C76.3699 5.64 76.7539 5.52 77.1699 5.52H77.4099C77.7619 5.52 78.0419 5.656 78.2499 5.928C78.4739 6.184 78.5539 6.488 78.4899 6.84L77.5299 11.4C77.4339 11.784 77.2259 12.104 76.9059 12.36C76.6019 12.6 76.2579 12.72 75.8739 12.72H74.3619ZM68.7699 12.72C68.4339 12.72 68.1699 12.584 67.9779 12.312C67.8019 12.04 67.7779 11.752 67.9059 11.448L69.7059 6.792C69.8499 6.408 70.0899 6.104 70.4259 5.88C70.7619 5.64 71.1379 5.52 71.5539 5.52H71.7939C72.1459 5.52 72.4259 5.656 72.6339 5.928C72.8579 6.184 72.9379 6.488 72.8739 6.84L71.9139 11.4C71.8179 11.784 71.6179 12.104 71.3139 12.36C71.0099 12.6 70.6659 12.72 70.2819 12.72H68.7699ZM86.7513 14.16C85.1513 14.16 84.3513 15.36 84.3513 17.76C84.3513 18.976 84.5673 19.88 84.9993 20.472C85.4313 21.064 86.0153 21.36 86.7513 21.36C87.3913 21.36 87.9513 21.144 88.4313 20.712C88.9113 20.28 89.1513 19.792 89.1513 19.248V16.272C89.1513 15.728 88.9113 15.24 88.4313 14.808C87.9513 14.376 87.3913 14.16 86.7513 14.16ZM85.4313 24.24C84.0073 24.24 82.8393 23.672 81.9273 22.536C81.0153 21.384 80.5593 19.792 80.5593 17.76C80.5593 15.68 80.9993 14.08 81.8793 12.96C82.7593 11.84 83.9433 11.28 85.4313 11.28C86.7433 11.28 87.9353 11.768 89.0073 12.744C89.0233 12.76 89.0393 12.768 89.0553 12.768C89.0713 12.768 89.0793 12.76 89.0793 12.744V7.368C89.0793 7 89.2073 6.68 89.4633 6.408C89.7353 6.136 90.0553 6 90.4233 6H91.5993C91.9673 6 92.2793 6.136 92.5353 6.408C92.8073 6.68 92.9433 7 92.9433 7.368V22.632C92.9433 23 92.8073 23.32 92.5353 23.592C92.2793 23.864 91.9673 24 91.5993 24H90.6873C90.3033 24 89.9753 23.872 89.7033 23.616C89.4473 23.344 89.3113 23.016 89.2953 22.632V22.44C89.2953 22.424 89.2873 22.416 89.2713 22.416L89.2233 22.464C88.2153 23.648 86.9513 24.24 85.4313 24.24ZM102.112 18.288C100.16 18.288 99.1844 18.888 99.1844 20.088C99.1844 20.52 99.3124 20.864 99.5684 21.12C99.8244 21.36 100.168 21.48 100.6 21.48C101.368 21.48 101.992 21.24 102.472 20.76C102.952 20.264 103.192 19.608 103.192 18.792V18.504C103.192 18.36 103.12 18.288 102.976 18.288H102.112ZM99.4244 24.24C98.3204 24.24 97.4084 23.888 96.6884 23.184C95.9844 22.464 95.6324 21.536 95.6324 20.4C95.6324 17.488 97.7924 16.032 102.112 16.032H102.976C103.12 16.032 103.192 15.968 103.192 15.84V15.72C103.192 15.112 103.032 14.672 102.712 14.4C102.408 14.128 101.888 13.992 101.152 13.992C100.176 13.992 99.0084 14.144 97.6484 14.448C97.3124 14.512 97.0084 14.44 96.7364 14.232C96.4804 14.024 96.3524 13.752 96.3524 13.416V13.368C96.3524 12.968 96.4724 12.608 96.7124 12.288C96.9684 11.952 97.2884 11.752 97.6724 11.688C99.0804 11.416 100.296 11.28 101.32 11.28C103.416 11.28 104.896 11.656 105.76 12.408C106.64 13.16 107.08 14.408 107.08 16.152V22.632C107.08 23 106.944 23.32 106.672 23.592C106.4 23.864 106.08 24 105.712 24H104.824C104.44 24 104.112 23.872 103.84 23.616C103.568 23.344 103.424 23.016 103.408 22.632V22.368C103.408 22.352 103.4 22.344 103.384 22.344C103.352 22.344 103.336 22.352 103.336 22.368C102.328 23.616 101.024 24.24 99.4244 24.24ZM114.355 9.792V20.688C114.355 20.832 114.427 20.92 114.571 20.952C114.891 21.016 115.275 21.048 115.723 21.048C117.339 21.048 118.531 20.576 119.299 19.632C120.083 18.688 120.475 17.144 120.475 15C120.475 13.08 120.083 11.672 119.299 10.776C118.515 9.88 117.323 9.432 115.723 9.432C115.275 9.432 114.891 9.464 114.571 9.528C114.427 9.56 114.355 9.648 114.355 9.792ZM111.715 24.048C111.331 24.016 111.011 23.856 110.755 23.568C110.499 23.264 110.371 22.912 110.371 22.512V7.968C110.371 7.568 110.499 7.224 110.755 6.936C111.011 6.632 111.331 6.464 111.715 6.432C112.963 6.304 114.195 6.24 115.411 6.24C118.275 6.24 120.483 7 122.035 8.52C123.587 10.04 124.363 12.2 124.363 15C124.363 18.04 123.587 20.344 122.035 21.912C120.483 23.464 118.275 24.24 115.411 24.24C114.195 24.24 112.963 24.176 111.715 24.048ZM132.053 13.896C131.333 13.896 130.789 14.088 130.421 14.472C130.053 14.84 129.821 15.48 129.725 16.392C129.725 16.52 129.781 16.584 129.893 16.584H133.949C134.093 16.584 134.165 16.512 134.165 16.368C134.101 14.72 133.397 13.896 132.053 13.896ZM132.653 24.24C130.477 24.24 128.797 23.688 127.613 22.584C126.445 21.48 125.861 19.872 125.861 17.76C125.861 15.664 126.381 14.064 127.421 12.96C128.477 11.84 129.997 11.28 131.981 11.28C135.789 11.28 137.725 13.36 137.789 17.52C137.789 17.904 137.637 18.232 137.333 18.504C137.045 18.76 136.709 18.888 136.325 18.888H129.917C129.757 18.888 129.693 18.96 129.725 19.104C129.853 19.984 130.189 20.616 130.733 21C131.293 21.368 132.125 21.552 133.229 21.552C133.949 21.552 134.725 21.448 135.557 21.24C135.893 21.16 136.189 21.224 136.445 21.432C136.717 21.64 136.853 21.912 136.853 22.248V22.296C136.853 22.696 136.725 23.064 136.469 23.4C136.229 23.72 135.917 23.912 135.533 23.976C134.605 24.152 133.645 24.24 132.653 24.24ZM142.177 22.704L139.104 12.816C139.009 12.496 139.057 12.2 139.249 11.928C139.457 11.656 139.729 11.52 140.065 11.52H141.505C141.905 11.52 142.257 11.648 142.561 11.904C142.881 12.144 143.081 12.456 143.161 12.84L145.177 21.744C145.177 21.76 145.185 21.768 145.201 21.768C145.217 21.768 145.225 21.76 145.225 21.744L147.241 12.84C147.321 12.456 147.513 12.144 147.817 11.904C148.137 11.648 148.497 11.52 148.897 11.52H150.241C150.577 11.52 150.841 11.656 151.033 11.928C151.241 12.2 151.297 12.496 151.201 12.816L148.129 22.704C148.001 23.088 147.769 23.4 147.433 23.64C147.113 23.88 146.753 24 146.353 24H143.953C143.537 24 143.161 23.88 142.825 23.64C142.505 23.4 142.289 23.088 142.177 22.704ZM157.574 16.56V20.784C157.574 20.928 157.646 21.016 157.79 21.048C158.126 21.112 158.534 21.144 159.014 21.144C160.15 21.144 160.982 20.936 161.51 20.52C162.038 20.088 162.302 19.432 162.302 18.552C162.302 17.08 161.102 16.344 158.702 16.344H157.766C157.638 16.344 157.574 16.416 157.574 16.56ZM157.574 9.696V13.224C157.574 13.352 157.638 13.416 157.766 13.416H158.366C160.702 13.416 161.87 12.72 161.87 11.328C161.87 10 160.894 9.336 158.942 9.336C158.478 9.336 158.086 9.368 157.766 9.432C157.638 9.464 157.574 9.552 157.574 9.696ZM154.91 24.048C154.526 24.016 154.206 23.848 153.95 23.544C153.694 23.24 153.566 22.896 153.566 22.512V7.968C153.566 7.568 153.694 7.224 153.95 6.936C154.222 6.632 154.55 6.464 154.934 6.432C156.182 6.304 157.406 6.24 158.606 6.24C163.246 6.24 165.566 7.736 165.566 10.728C165.566 11.736 165.238 12.592 164.582 13.296C163.942 14 163.078 14.448 161.99 14.64C161.974 14.64 161.966 14.656 161.966 14.688C161.966 14.704 161.982 14.712 162.014 14.712C163.278 14.888 164.278 15.368 165.014 16.152C165.766 16.936 166.142 17.872 166.142 18.96C166.142 20.736 165.55 22.064 164.366 22.944C163.198 23.808 161.358 24.24 158.846 24.24C157.582 24.24 156.27 24.176 154.91 24.048ZM175.691 14.88C175.307 14.288 174.715 13.992 173.915 13.992C173.115 13.992 172.515 14.288 172.115 14.88C171.731 15.472 171.539 16.432 171.539 17.76C171.539 19.088 171.731 20.048 172.115 20.64C172.515 21.232 173.115 21.528 173.915 21.528C174.715 21.528 175.307 21.232 175.691 20.64C176.091 20.048 176.291 19.088 176.291 17.76C176.291 16.432 176.091 15.472 175.691 14.88ZM178.547 22.536C177.443 23.672 175.899 24.24 173.915 24.24C171.931 24.24 170.387 23.672 169.283 22.536C168.179 21.4 167.627 19.808 167.627 17.76C167.627 15.712 168.179 14.12 169.283 12.984C170.387 11.848 171.931 11.28 173.915 11.28C175.899 11.28 177.443 11.848 178.547 12.984C179.651 14.12 180.203 15.712 180.203 17.76C180.203 19.808 179.651 21.4 178.547 22.536ZM185.256 23.808L181.2 12.792C181.072 12.488 181.104 12.2 181.296 11.928C181.488 11.656 181.752 11.52 182.088 11.52H183.6C183.984 11.52 184.336 11.648 184.656 11.904C184.976 12.144 185.184 12.456 185.28 12.84L187.104 20.304C187.104 20.32 187.112 20.328 187.128 20.328C187.144 20.328 187.152 20.32 187.152 20.304L189.336 12.816C189.432 12.432 189.64 12.12 189.96 11.88C190.296 11.64 190.672 11.52 191.088 11.52H192.408C192.728 11.52 192.984 11.656 193.176 11.928C193.368 12.2 193.408 12.488 193.296 12.792L187.632 28.008C187.488 28.392 187.248 28.696 186.912 28.92C186.576 29.16 186.208 29.28 185.808 29.28H184.488C184.152 29.28 183.896 29.144 183.72 28.872C183.544 28.616 183.52 28.336 183.648 28.032L185.256 24.192C185.272 24.128 185.28 24.064 185.28 24C185.28 23.936 185.272 23.872 185.256 23.808ZM203.437 5.52H204.949C205.269 5.52 205.517 5.656 205.693 5.928C205.885 6.2 205.925 6.488 205.813 6.792L204.013 11.448C203.869 11.832 203.629 12.144 203.293 12.384C202.957 12.608 202.581 12.72 202.165 12.72H201.925C201.573 12.72 201.285 12.592 201.061 12.336C200.853 12.064 200.781 11.752 200.845 11.4L201.805 6.84C201.885 6.456 202.077 6.144 202.381 5.904C202.685 5.648 203.037 5.52 203.437 5.52ZM196.309 12.72C195.957 12.72 195.669 12.592 195.445 12.336C195.237 12.064 195.165 11.752 195.229 11.4L196.189 6.84C196.269 6.456 196.461 6.144 196.765 5.904C197.085 5.648 197.445 5.52 197.845 5.52H199.357C199.677 5.52 199.925 5.656 200.101 5.928C200.293 6.2 200.333 6.488 200.221 6.792L198.421 11.448C198.277 11.832 198.029 12.144 197.677 12.384C197.341 12.608 196.965 12.72 196.549 12.72H196.309Z" fill="#550BEB"/>
</svg>
